<?xml version="1.0" standalone="no"?>
<!DOCTYPE svg PUBLIC "-//W3C//DTD SVG 20010904//EN"
 "http://www.w3.org/TR/2001/REC-SVG-20010904/DTD/svg10.dtd">
<svg version="1.0" xmlns="http://www.w3.org/2000/svg"
 width="3840.000000pt" height="2160.000000pt" viewBox="0 0 3840.000000 2160.000000"
 preserveAspectRatio="xMidYMid meet">

<g transform="translate(0.000000,2160.000000) scale(0.100000,-0.100000)"
fill="#000000" stroke="none">
<path d="M4975 17734 c-6 -9 -25 -16 -45 -16 -31 -1 -66 -15 -130 -53 -9 -6
-30 -22 -46 -37 -16 -15 -36 -33 -46 -40 -9 -7 -31 -42 -50 -78 -33 -64 -33
-66 -33 -200 0 -109 3 -142 18 -169 9 -19 17 -40 17 -47 0 -15 31 -76 43 -85
10 -7 30 -40 51 -84 8 -16 24 -40 35 -51 11 -12 27 -39 35 -59 9 -20 27 -50
41 -67 14 -16 25 -38 25 -49 0 -10 4 -19 9 -19 5 0 23 -23 41 -50 18 -28 53
-65 79 -82 25 -17 54 -39 63 -49 20 -20 103 -46 192 -61 79 -12 161 -54 197
-100 16 -20 49 -74 73 -120 49 -95 69 -131 76 -138 10 -10 30 -46 58 -100 15
-30 51 -86 79 -124 29 -37 53 -74 53 -82 0 -8 7 -14 15 -14 8 0 32 -16 54 -35
21 -19 43 -35 49 -35 6 0 12 -5 14 -10 4 -14 123 -53 226 -75 45 -10 82 -22
82 -26 0 -5 6 -9 13 -9 20 -1 107 -59 114 -78 4 -9 16 -29 27 -43 12 -14 26
-35 33 -45 7 -10 28 -43 48 -73 19 -29 35 -60 35 -68 0 -9 14 -31 30 -50 17
-18 30 -38 30 -44 0 -6 14 -30 30 -54 17 -24 30 -48 30 -54 0 -5 9 -12 19 -16
11 -3 29 -21 40 -40 11 -19 27 -35 36 -35 8 0 15 -5 15 -11 0 -6 20 -31 45
-55 25 -23 45 -48 45 -54 0 -6 6 -10 12 -8 7 3 22 -4 33 -15 11 -10 40 -28 65
-40 25 -11 47 -24 50 -29 3 -4 21 -14 40 -23 19 -9 49 -24 65 -32 27 -15 98
-34 133 -36 6 0 12 -4 12 -9 0 -4 6 -8 13 -8 8 0 55 -13 106 -30 50 -16 119
-34 152 -41 33 -7 66 -17 72 -23 12 -12 119 -44 172 -53 49 -7 190 -46 195
-53 6 -8 127 -45 180 -55 47 -9 162 -46 177 -57 6 -5 24 -11 40 -14 81 -13
141 -28 204 -50 38 -13 75 -24 83 -24 8 0 16 -5 18 -10 2 -6 21 -13 43 -16 22
-3 49 -9 60 -14 24 -9 132 -40 160 -45 11 -2 22 -4 25 -5 3 -1 8 -2 13 -1 4 0
7 -3 7 -8 0 -4 28 -14 63 -21 80 -15 281 -80 285 -91 5 -14 32 -11 32 4 0 8 3
9 8 1 7 -10 130 -51 182 -61 14 -2 39 -8 55 -13 17 -5 47 -12 68 -15 20 -3 37
-10 37 -15 0 -6 9 -10 20 -10 11 0 28 -4 38 -9 22 -13 153 -51 183 -55 34 -3
113 -29 119 -38 3 -4 17 -10 30 -12 14 -2 25 -5 25 -6 0 -1 9 -3 20 -5 59 -9
260 -66 263 -75 2 -5 11 -10 20 -10 10 0 40 -9 69 -20 28 -11 67 -21 85 -23
47 -6 158 -36 188 -52 25 -12 74 -26 116 -30 12 -2 55 -14 95 -28 41 -14 89
-28 107 -32 17 -4 32 -11 32 -15 0 -5 17 -12 38 -17 20 -4 39 -8 42 -8 3 -1
23 -5 45 -10 56 -13 55 -12 58 -14 1 -2 13 -4 27 -7 41 -6 100 -27 100 -34 0
-7 48 -20 85 -24 52 -6 236 -72 246 -89 4 -5 9 -3 12 4 5 12 7 12 15 1 5 -7
15 -14 23 -16 40 -7 176 -81 222 -120 28 -26 55 -46 59 -46 11 0 138 -126 138
-137 0 -5 12 -20 26 -34 24 -22 85 -105 110 -150 6 -11 23 -32 36 -47 14 -15
36 -43 49 -62 60 -88 213 -221 324 -281 22 -12 49 -32 60 -44 12 -12 57 -34
100 -50 44 -16 85 -35 90 -41 10 -12 139 -54 167 -54 22 0 149 -39 178 -55 27
-14 98 -30 118 -27 6 2 12 -1 12 -5 0 -4 10 -9 23 -9 24 -1 164 -41 181 -52 6
-3 18 -6 26 -7 8 0 33 -5 55 -12 22 -6 63 -16 90 -22 99 -22 210 -56 223 -68
7 -7 24 -13 36 -13 13 0 58 -10 102 -21 43 -12 90 -23 104 -24 14 -2 26 -4 28
-5 4 -4 15 -7 60 -15 23 -4 42 -11 42 -16 0 -4 8 -8 18 -7 15 0 153 -38 262
-71 19 -6 53 -13 74 -16 22 -3 44 -9 50 -14 10 -8 226 -64 286 -74 55 -9 90
-20 90 -27 0 -4 10 -10 23 -13 12 -2 58 -15 102 -27 44 -13 91 -24 105 -26 30
-3 125 -28 160 -42 46 -18 134 -41 178 -47 24 -3 71 -14 104 -25 34 -11 67
-20 75 -20 7 0 13 -3 13 -8 0 -9 110 -41 160 -47 41 -5 58 -9 82 -19 9 -4 21
-5 26 -2 5 3 25 -3 45 -13 39 -20 116 -42 157 -46 30 -2 223 -60 266 -80 17
-8 51 -17 75 -21 70 -10 84 -12 84 -14 0 -1 9 -3 20 -4 34 -4 180 -49 185 -57
3 -4 25 -10 49 -13 24 -3 66 -12 95 -21 28 -8 65 -20 81 -25 66 -20 168 -40
206 -40 21 0 39 -3 39 -7 0 -9 164 -8 178 1 6 3 34 8 63 10 62 5 130 26 212
67 31 16 57 26 57 22 0 -4 7 3 16 15 8 12 21 22 27 22 7 0 28 13 47 30 19 16
38 29 43 30 7 0 25 16 189 176 51 50 106 99 121 109 15 10 34 30 42 46 8 15
31 37 50 49 20 13 41 33 46 46 5 14 19 28 32 33 13 5 34 21 47 36 51 56 151
155 156 155 4 0 39 33 78 73 143 143 184 169 275 173 73 3 105 -9 161 -62 19
-19 41 -34 48 -34 6 0 12 -3 12 -7 0 -10 30 -40 189 -190 68 -65 170 -161 225
-214 56 -53 118 -111 139 -129 20 -18 37 -38 37 -46 0 -8 6 -14 13 -14 10 0
109 -87 212 -187 11 -11 36 -28 54 -39 33 -18 58 -35 85 -59 43 -38 245 -110
278 -99 10 3 18 1 18 -4 0 -5 11 -7 25 -4 14 2 25 0 25 -4 0 -10 168 -9 177 0
4 3 25 6 47 6 50 1 61 3 306 72 19 6 52 12 73 15 20 3 37 9 37 13 0 4 24 13
53 20 28 6 70 18 92 26 41 14 74 20 155 30 25 3 54 12 66 19 24 15 198 67 232
69 12 0 22 5 22 9 0 5 4 6 8 3 10 -6 125 23 132 33 3 4 50 18 105 30 169 37
229 52 240 60 17 13 75 31 165 51 109 24 170 40 195 50 34 14 159 47 182 48
27 1 206 53 213 62 6 8 52 21 92 26 14 2 58 12 98 23 40 11 75 20 79 19 3 0 9
1 14 2 8 3 11 4 57 14 19 5 41 13 48 19 7 5 29 12 50 14 20 2 48 8 62 13 14 5
43 14 65 19 22 6 72 19 110 31 39 12 77 23 85 24 8 2 22 6 30 8 48 17 106 33
112 30 5 -1 43 8 85 19 43 12 82 22 88 23 5 1 15 4 20 7 6 3 23 6 39 7 17 1
32 6 35 10 6 8 192 61 291 83 30 6 89 22 130 36 41 13 107 31 145 39 94 19
155 37 155 45 0 4 12 9 28 12 15 3 52 12 82 21 50 15 76 21 135 31 11 2 20 4
20 5 0 1 11 3 25 6 14 2 30 11 36 19 6 8 17 15 24 15 6 0 24 6 38 14 15 8 39
17 53 20 14 3 36 15 49 26 13 11 34 23 47 26 13 4 23 10 23 16 0 5 21 19 48
31 58 27 87 48 94 67 3 9 18 22 34 30 33 18 113 96 169 165 22 28 50 61 62 74
13 13 23 28 23 33 0 5 14 29 30 53 17 24 30 46 30 49 0 2 13 19 29 37 16 17
37 46 46 63 10 17 37 46 61 64 24 18 44 38 44 45 0 7 14 18 31 26 17 7 42 24
56 37 14 13 32 24 39 24 7 0 21 8 31 19 10 10 39 26 66 36 26 10 47 21 47 25
0 4 19 13 43 20 23 7 58 20 77 30 36 18 193 71 220 75 56 7 100 18 100 25 0 9
109 45 124 41 5 -1 23 3 40 10 17 6 47 13 66 16 19 2 53 13 75 23 38 19 188
66 230 73 53 9 125 32 125 40 0 5 6 7 14 4 8 -3 17 -3 20 1 4 3 12 7 19 9 7 1
30 7 52 13 22 6 58 15 80 20 65 14 145 38 158 48 15 11 129 48 140 44 8 -2
106 23 137 35 8 4 19 5 23 4 4 0 28 8 54 20 25 11 62 23 82 26 47 7 248 70
284 89 15 8 27 12 27 8 0 -3 6 -1 14 5 8 6 18 11 22 9 5 -1 24 2 42 6 19 4 43
9 55 10 42 5 167 49 167 59 0 5 7 4 16 -4 10 -8 18 -9 22 -2 8 12 215 79 284
92 26 4 53 13 60 18 7 6 27 13 43 16 17 2 64 15 105 27 41 12 86 24 100 26 37
7 64 16 70 23 7 10 295 91 330 93 8 1 17 4 20 7 5 6 137 50 169 56 9 2 18 4
21 5 3 1 9 2 13 1 15 -2 147 41 147 48 0 9 60 25 165 46 83 16 178 44 185 54
3 4 55 20 115 36 138 35 238 66 246 77 3 5 25 10 50 12 63 5 280 114 302 152
4 8 14 14 21 14 23 0 246 230 246 253 0 8 11 24 25 37 14 13 25 30 25 37 0 8
6 16 14 19 8 3 33 42 56 86 23 45 48 88 56 95 8 8 14 19 14 24 0 5 19 38 41
73 30 46 54 69 88 87 25 13 48 27 51 30 3 3 55 16 115 28 61 13 125 29 144 37
18 8 42 14 52 14 11 0 19 4 19 10 0 5 21 23 48 40 70 47 150 158 251 350 4 8
16 31 26 50 10 19 28 53 39 75 11 22 26 45 32 50 7 6 22 29 34 53 27 53 76
106 90 97 5 -3 10 -2 10 2 0 17 41 33 137 53 54 12 104 22 111 22 6 1 12 5 12
10 0 5 4 7 10 3 5 -3 17 2 27 12 10 10 44 35 76 56 32 22 62 49 68 60 11 27
31 58 44 72 20 19 85 122 85 133 0 7 4 12 9 12 5 0 28 40 52 90 24 50 46 90
50 90 12 0 65 103 85 165 25 80 26 230 1 299 -27 75 -35 87 -99 149 -66 63
-149 107 -203 107 -27 0 -35 4 -35 18 0 14 -2 15 -10 2 -9 -13 -10 -13 -10 0
0 12 -2 13 -9 1 -7 -11 -9 -11 -14 0 -4 12 -7 11 -16 -1 -10 -13 -11 -13 -11
0 0 13 -1 13 -11 0 -8 -11 -12 -12 -16 -2 -7 18 -11893 18 -11893 0 0 -9 -4
-8 -10 2 -9 13 -10 13 -10 0 0 -13 -1 -13 -10 0 -5 8 -10 10 -10 4 0 -6 -7
-11 -15 -11 -8 0 -15 5 -15 11 0 6 -5 4 -10 -4 -9 -13 -10 -13 -10 0 0 13 -1
13 -10 0 -7 -11 -10 -12 -10 -2 0 11 -3 10 -15 -1 -8 -8 -29 -15 -47 -15 -78
0 -278 -68 -278 -94 0 -4 -8 -8 -18 -8 -23 0 -141 -76 -165 -107 -10 -13 -24
-23 -30 -23 -15 0 -157 -149 -157 -164 0 -6 -20 -34 -45 -61 -25 -28 -43 -54
-41 -60 2 -5 -14 -37 -35 -70 -21 -33 -47 -77 -59 -98 -52 -94 -170 -177 -284
-198 -34 -6 -420 -9 -1047 -7 l-994 3 -71 31 c-107 48 -154 92 -204 192 -18
37 -45 85 -59 107 -15 22 -33 53 -41 69 -8 16 -27 41 -42 55 -16 14 -28 32
-28 38 0 13 -128 146 -190 197 -45 38 -136 96 -149 96 -6 0 -26 11 -45 24 -41
27 -200 80 -220 73 -8 -3 -17 -3 -20 0 -6 6 -28 10 -83 15 -13 1 -23 7 -23 13
0 5 -5 3 -10 -5 -9 -13 -10 -13 -10 0 0 13 -1 13 -10 0 -9 -13 -10 -13 -10 0
0 13 -1 13 -10 0 -8 -12 -11 -13 -19 -1 -7 11 -9 11 -14 0 -4 -10 -6 -10 -6
-1 -1 18 -11901 18 -11901 0 0 -9 -4 -8 -10 2 -6 10 -10 11 -10 3 0 -15 -21
-13 -32 2 -5 6 -8 4 -8 -5 0 -11 -2 -12 -8 -3 -6 9 -10 8 -17 -3z m12111 -335
c96 -17 203 -57 229 -85 6 -6 35 -28 65 -50 30 -21 62 -48 70 -59 8 -11 24
-30 37 -42 25 -26 88 -119 100 -148 11 -28 103 -168 118 -180 7 -6 15 -20 19
-33 l7 -22 -6068 0 c-5893 0 -6283 2 -6318 29 -5 5 -24 11 -41 14 -46 9 -115
59 -152 111 -18 25 -37 46 -42 46 -5 0 -28 37 -50 83 -23 45 -48 89 -55 97
-61 70 -78 170 -36 214 13 14 33 27 45 29 11 2 2719 5 6017 6 4227 1 6013 -2
6055 -10z m16435 -12 c32 -21 34 -27 37 -83 2 -51 -2 -68 -29 -119 -17 -33
-34 -62 -38 -65 -12 -10 -71 -99 -71 -107 0 -5 -27 -41 -60 -81 -59 -69 -123
-112 -170 -112 -10 0 -20 -4 -22 -10 -1 -5 -48 -14 -103 -19 -144 -13 -12285
-14 -12285 -1 0 5 4 10 8 10 4 0 25 34 47 75 21 41 42 75 47 75 5 0 20 25 34
55 14 30 37 66 50 80 13 14 24 29 24 32 0 3 21 31 46 62 46 56 138 130 162
131 6 0 12 4 12 8 0 17 77 49 155 66 44 10 85 19 90 21 6 2 2715 4 6021 4
l6011 1 34 -23z m-4456 -862 c3056 -13 3530 -16 3534 -27 2 -6 7 -5 12 3 6 10
9 11 9 2 0 -8 14 -13 35 -13 21 0 35 5 35 13 0 8 4 7 11 -3 8 -11 12 -12 16
-2 4 11 33 18 33 8 0 -2 -11 -24 -25 -47 -14 -24 -25 -52 -25 -61 0 -9 -8 -23
-18 -30 -10 -7 -38 -53 -62 -103 -24 -49 -51 -97 -60 -105 -9 -8 -33 -36 -54
-62 -20 -27 -57 -60 -82 -74 -24 -14 -44 -29 -44 -32 0 -16 -109 -57 -185 -70
-40 -7 -472 -5 -640 2 -293 14 -1021 60 -1025 66 -4 6 -417 31 -460 28 -68 -5
-1274 64 -1280 73 -3 4 -97 10 -210 13 -113 4 -450 22 -750 41 -743 47 -752
47 -860 49 -52 1 -100 5 -106 9 -7 3 -61 7 -120 7 -109 1 -562 25 -661 36
l-53 5 0 146 0 146 943 -7 c518 -4 1460 -9 2092 -11z m-16575 -140 l0 -145
-27 0 c-16 0 -127 -7 -248 -15 -121 -8 -280 -15 -352 -15 -73 0 -133 -4 -133
-8 0 -12 -54 -10 -62 2 -5 7 -8 7 -8 1 0 -6 -36 -11 -82 -13 -46 -1 -371 -20
-723 -42 -352 -22 -730 -43 -840 -46 -110 -3 -202 -9 -205 -13 -5 -8 -691 -50
-820 -51 -41 0 -142 -5 -225 -10 -82 -5 -175 -10 -205 -10 -129 -2 -505 -24
-510 -30 -3 -4 -97 -12 -210 -19 -113 -6 -314 -19 -448 -27 -133 -8 -291 -16
-350 -18 -59 -2 -168 -7 -242 -10 -348 -15 -393 -15 -561 8 -38 5 -149 54
-149 65 0 4 -19 21 -43 38 -24 17 -52 50 -64 75 -12 24 -30 52 -40 63 -17 18
-73 133 -73 149 0 4 -15 30 -33 59 -18 29 -41 67 -49 85 l-16 32 94 0 c68 0
94 3 95 13 0 10 2 10 6 0 2 -8 22 -13 44 -13 24 0 39 5 40 13 0 10 2 10 6 0 3
-8 23 -13 49 -13 28 0 44 4 44 13 0 8 4 7 10 -3 6 -10 10 -11 10 -2 0 9 105
12 490 12 320 0 490 -3 490 -10 0 -15 80 -13 81 3 0 9 2 9 6 -1 3 -9 9 -10 17
-3 9 7 560 13 1692 17 923 3 1681 8 1683 10 2 2 422 4 932 3 l929 0 0 -144z
m13275 -875 l0 -1015 -6512 -3 -6513 -2 0 1020 0 1020 6513 -2 6512 -3 0
-1015z m-13275 335 l0 -155 -35 0 c-19 0 -35 -4 -35 -9 0 -9 -93 -20 -230 -27
-47 -2 -116 -9 -155 -14 -38 -5 -162 -19 -275 -31 -113 -12 -207 -25 -210 -29
-5 -8 -167 -26 -185 -21 -5 1 -84 -5 -175 -13 -433 -42 -585 -60 -589 -69 -2
-5 -7 -3 -12 4 -6 10 -9 11 -9 2 0 -7 -6 -13 -14 -13 -8 0 -17 6 -19 13 -4 9
-8 9 -15 -2 -5 -7 -23 -13 -38 -13 -16 0 -186 -17 -379 -39 -192 -22 -395 -42
-450 -45 -55 -3 -105 -10 -111 -15 -6 -5 -40 -10 -75 -10 -35 0 -134 -9 -219
-19 -85 -11 -211 -24 -280 -30 -306 -26 -375 -33 -380 -40 -5 -6 -463 -59
-540 -62 -19 -1 -38 -3 -43 -5 -4 -2 -35 -6 -70 -8 -150 -8 -242 -17 -247 -25
-9 -15 -349 -43 -449 -37 -98 5 -191 23 -191 37 0 4 -20 13 -44 20 -44 12
-116 63 -116 81 0 5 -4 15 -10 22 -43 53 -60 76 -60 81 0 4 -11 23 -23 44 -13
20 -27 49 -30 64 -4 15 -18 39 -31 53 -35 37 -53 85 -36 95 11 7 187 19 375
25 190 6 361 18 370 26 6 4 76 10 155 13 80 3 147 6 150 7 3 1 16 0 30 0 14
-1 167 7 340 19 173 12 373 23 445 25 213 6 535 28 535 37 0 4 17 8 38 8 20 0
222 11 447 25 662 40 1003 57 1096 56 48 -1 90 2 93 7 3 5 61 12 128 16 68 4
182 11 253 17 72 5 193 11 270 14 239 7 1010 58 1013 67 2 4 12 8 23 8 18 0
19 -9 19 -155z m13875 115 c271 -19 428 -28 620 -34 213 -8 652 -39 668 -47
10 -5 48 -9 85 -8 136 3 1537 -78 1567 -91 20 -9 313 -28 549 -35 71 -3 271
-14 444 -25 174 -12 325 -20 336 -19 41 5 331 -13 341 -21 10 -8 191 -20 380
-25 61 -2 192 -9 293 -16 170 -11 181 -13 167 -29 -8 -9 -15 -23 -15 -31 0 -8
-15 -32 -34 -52 -18 -20 -44 -63 -57 -94 -23 -57 -31 -69 -76 -119 -13 -14
-23 -31 -23 -38 0 -21 -53 -63 -105 -82 -27 -10 -52 -21 -55 -24 -14 -18 -87
-32 -190 -37 -118 -6 -455 21 -475 38 -6 4 -51 10 -100 14 -50 3 -106 7 -125
10 -19 2 -82 7 -140 11 -58 3 -172 14 -255 24 -82 10 -185 22 -227 26 -43 4
-78 10 -78 14 0 8 -78 17 -220 26 -47 3 -204 19 -349 35 -145 16 -270 28 -277
25 -6 -2 -15 -2 -19 2 -3 3 -22 5 -42 3 -20 -1 -39 2 -42 8 -4 5 -56 13 -116
16 -61 3 -148 10 -195 15 -249 29 -619 67 -649 67 -18 0 -37 6 -42 14 -6 10
-9 10 -9 2 0 -14 -26 -18 -32 -5 -3 8 -287 43 -388 48 -30 2 -57 4 -60 5 -3 1
-9 1 -15 0 -5 -2 -45 2 -90 8 -44 6 -152 16 -240 22 -88 6 -162 14 -165 18 -3
5 -27 11 -55 13 -27 3 -160 17 -295 31 -135 15 -308 32 -385 39 l-140 13 -3
153 -3 152 23 0 c13 0 154 -9 313 -20z m-13875 -704 l0 -164 -27 -6 c-16 -3
-50 -8 -78 -12 -27 -4 -52 -10 -55 -14 -7 -10 -191 -39 -285 -45 -95 -6 -338
-45 -345 -55 -6 -9 -61 -19 -141 -26 -94 -7 -421 -63 -443 -76 -11 -5 -56 -12
-100 -14 -89 -4 -528 -74 -536 -86 -3 -4 -21 -8 -40 -9 -19 -1 -141 -19 -270
-39 -129 -21 -264 -39 -300 -40 -35 -1 -69 -5 -75 -10 -12 -10 -121 -30 -335
-61 -191 -27 -614 -30 -755 -5 -147 27 -275 58 -275 68 0 5 -12 9 -27 8 -16
-1 -32 -1 -38 0 -5 1 -14 3 -20 4 -5 1 -35 10 -65 20 -83 26 -161 48 -194 52
-17 2 -33 8 -36 14 -8 13 -249 82 -265 76 -7 -2 -16 -2 -19 2 -4 3 -17 7 -29
9 -12 2 -23 8 -25 13 -2 6 -11 10 -19 10 -9 0 -14 2 -12 5 7 6 397 54 489 60
116 6 204 17 210 24 3 4 93 17 200 29 179 20 270 28 420 36 105 6 280 29 280
38 0 4 15 8 33 8 17 0 118 11 222 24 105 13 199 23 210 24 60 1 193 13 243 21
31 5 89 13 127 17 39 4 72 10 75 14 3 5 75 13 160 19 249 18 264 20 515 48
132 15 242 30 245 34 5 7 235 35 260 32 15 -3 303 29 440 48 41 5 102 10 135
10 33 0 62 4 65 9 3 4 73 13 155 20 83 6 177 15 210 19 33 5 72 9 88 10 l27 1
0 -164z m13640 152 c8 0 51 -4 95 -9 44 -5 120 -11 170 -15 49 -3 95 -10 102
-16 7 -5 27 -9 45 -8 18 1 38 1 43 0 6 -1 17 -2 26 -1 8 1 105 -10 215 -24
109 -14 244 -28 299 -31 55 -3 124 -9 154 -14 30 -6 69 -10 87 -10 18 0 34 -4
36 -8 3 -8 397 -55 563 -68 44 -3 103 -7 130 -10 28 -2 50 -4 50 -4 0 0 34 -3
75 -6 41 -2 77 -9 80 -13 3 -5 44 -12 93 -16 48 -4 90 -11 93 -16 3 -5 10 -7
15 -3 5 3 49 1 97 -5 48 -6 121 -13 162 -15 113 -7 454 -49 460 -56 7 -9 278
-39 407 -44 124 -6 496 -47 503 -56 5 -8 104 -20 210 -26 75 -5 191 -17 373
-41 l128 -16 -38 -18 c-21 -10 -52 -18 -70 -19 -18 0 -52 -6 -75 -14 -24 -7
-77 -24 -118 -37 -41 -13 -76 -27 -78 -31 -2 -5 -14 -8 -27 -8 -12 0 -56 -11
-96 -24 -117 -38 -151 -47 -204 -53 -27 -3 -52 -9 -55 -12 -14 -18 -225 -65
-345 -77 -100 -9 -524 -9 -590 0 -186 26 -431 70 -436 78 -3 5 -27 8 -53 5
-26 -2 -49 0 -52 4 -2 5 -11 6 -18 3 -7 -3 -78 7 -157 21 -183 34 -247 44
-334 51 -38 3 -72 10 -75 14 -3 4 -39 13 -80 20 -41 6 -136 22 -210 36 -74 13
-180 26 -234 29 -55 3 -102 9 -105 13 -7 9 -313 65 -376 69 -22 1 -41 3 -42 4
-2 1 -11 2 -20 3 -89 10 -143 19 -143 25 0 9 -274 55 -309 53 -12 -1 -28 1
-34 5 -7 4 -26 6 -44 4 -36 -3 -235 29 -243 39 -3 4 -38 12 -77 19 l-73 13 0
165 0 166 43 -7 c23 -4 49 -7 57 -8z m-13640 -764 c0 -132 -3 -179 -13 -189
-12 -12 -127 -49 -187 -60 -49 -9 -146 -37 -175 -50 -16 -8 -66 -21 -110 -31
-44 -9 -116 -27 -159 -40 -44 -13 -85 -24 -93 -24 -7 0 -13 -4 -13 -9 0 -8
-50 -23 -110 -34 -14 -3 -56 -14 -95 -25 -38 -11 -73 -19 -76 -16 -4 2 -10 0
-13 -5 -3 -5 -15 -7 -26 -4 -11 3 -20 1 -20 -5 0 -11 -35 -21 -95 -28 -22 -2
-69 -11 -105 -19 -106 -23 -325 -55 -379 -55 -27 0 -53 -4 -56 -10 -3 -5 -39
-10 -80 -10 -41 0 -77 5 -80 10 -3 6 -25 10 -48 10 -23 1 -69 7 -102 14 -75
17 -195 47 -215 54 -8 3 -17 6 -20 7 -3 1 -22 5 -42 9 -21 5 -38 12 -38 18 0
5 -6 8 -12 7 -14 -3 -80 14 -143 35 -22 8 -61 17 -87 21 -26 3 -54 12 -61 19
-7 8 -29 17 -48 21 -19 4 -38 10 -44 14 -16 12 -141 40 -192 43 -7 1 -13 6
-13 11 0 5 9 7 20 4 11 -3 22 -2 25 3 2 4 16 5 31 2 14 -2 29 -1 33 5 6 9 252
53 331 59 62 4 281 43 305 54 28 13 178 39 253 43 35 3 65 7 68 10 3 3 11 4
18 1 7 -3 59 5 117 16 57 11 114 20 127 20 12 0 22 4 22 9 0 8 145 35 180 34
28 -1 415 68 435 77 11 5 58 12 105 16 105 7 113 8 280 39 74 14 154 28 178
32 23 3 42 11 42 17 0 6 4 4 10 -4 7 -11 13 -12 32 -3 13 7 82 22 153 34 72
11 132 23 134 25 2 2 15 4 28 4 l23 0 0 -176z m13720 145 c58 -10 115 -19 128
-19 12 0 22 -4 22 -10 0 -5 17 -10 38 -10 20 0 73 -7 117 -15 269 -47 322 -56
355 -59 21 -2 42 -6 48 -10 6 -3 13 -3 16 2 6 10 68 3 76 -8 5 -7 91 -26 155
-34 17 -3 84 -13 150 -24 66 -11 127 -20 135 -20 27 1 165 -24 175 -32 13 -10
246 -49 332 -55 87 -6 266 -36 273 -45 5 -7 184 -40 250 -46 19 -1 35 -3 35
-4 0 -1 18 -3 40 -6 80 -7 280 -46 292 -56 7 -5 39 -9 73 -9 34 0 60 -4 60
-10 0 -6 -4 -8 -8 -5 -9 5 -99 -14 -182 -39 -30 -9 -64 -19 -75 -22 -11 -4
-22 -9 -25 -13 -7 -8 -92 -34 -104 -31 -5 1 -37 -7 -72 -19 -35 -11 -69 -20
-76 -20 -7 0 -25 -6 -39 -14 -15 -7 -51 -19 -80 -26 -30 -6 -85 -21 -124 -32
-96 -28 -193 -47 -237 -48 -21 0 -38 -4 -38 -10 0 -6 -38 -10 -95 -10 -52 0
-95 4 -95 9 0 4 -42 11 -93 15 -85 6 -371 51 -388 62 -4 2 -33 6 -65 10 -31 3
-67 10 -78 17 -12 6 -32 13 -46 15 -14 1 -50 12 -80 22 -30 11 -68 21 -85 24
-49 6 -119 27 -134 39 -8 7 -35 17 -60 24 -58 16 -211 53 -233 57 -10 1 -20 5
-24 8 -3 4 -13 4 -21 1 -8 -3 -18 -1 -22 6 -7 11 -132 50 -176 55 -31 4 -136
36 -165 50 l-25 12 -3 182 -2 183 37 -6 c21 -4 85 -15 143 -26z m-12385 -589
c-38 -17 -79 -33 -90 -36 -11 -4 -27 -12 -35 -20 -9 -7 -47 -25 -85 -39 -38
-15 -89 -40 -112 -56 -24 -16 -56 -32 -71 -36 -15 -3 -54 -19 -87 -35 -33 -15
-68 -28 -77 -28 -10 0 -18 -4 -18 -9 0 -5 -16 -15 -35 -22 -19 -7 -35 -16 -35
-20 0 -4 -32 -18 -70 -33 -39 -14 -80 -35 -92 -46 -11 -10 -25 -17 -29 -14 -5
2 -25 -4 -46 -14 -21 -11 -50 -22 -65 -26 -14 -3 -39 -16 -55 -29 -51 -41
-156 -76 -278 -93 -11 -1 -22 -3 -25 -4 -3 -1 -13 -1 -24 0 -10 1 -22 -4 -27
-12 -12 -20 -436 -19 -448 1 -5 8 -18 12 -30 8 -12 -3 -23 -1 -26 4 -3 4 -11
6 -18 3 -7 -2 -51 4 -97 15 -46 11 -86 18 -90 16 -9 -5 -163 44 -170 55 -3 4
-16 10 -30 13 -14 3 -61 15 -105 27 -44 11 -95 25 -112 29 -18 5 -33 7 -33 4
0 -2 -6 -1 -12 4 -7 4 -22 9 -32 10 -21 4 -32 11 -25 17 2 2 33 10 69 16 99
18 292 71 318 87 13 8 33 15 45 17 12 1 40 7 62 14 22 6 52 13 68 16 49 9 178
47 187 56 3 3 10 5 15 6 14 1 84 21 177 51 43 13 94 27 115 29 21 3 48 11 60
19 12 8 31 15 42 15 11 0 30 4 43 9 36 14 130 40 168 46 19 3 36 8 39 11 2 2
284 4 625 4 l621 -1 -70 -29z m1555 20 c0 -5 -6 -10 -12 -10 -7 0 -35 -16 -63
-35 -27 -20 -68 -47 -90 -62 -22 -14 -44 -32 -48 -39 -4 -8 -13 -14 -20 -14
-7 0 -22 -11 -34 -23 -11 -13 -42 -34 -68 -47 -26 -13 -57 -34 -68 -47 -12
-12 -27 -23 -33 -23 -6 0 -28 -15 -50 -33 -21 -19 -77 -60 -124 -92 -47 -32
-89 -63 -95 -69 -5 -6 -38 -28 -71 -48 -34 -21 -76 -51 -92 -67 -17 -15 -46
-36 -64 -44 -18 -9 -51 -32 -72 -52 -22 -19 -46 -35 -54 -35 -8 0 -29 -15 -47
-34 -17 -18 -45 -40 -61 -49 -16 -8 -38 -24 -48 -36 -11 -12 -25 -21 -32 -21
-7 0 -17 -6 -21 -14 -4 -7 -34 -28 -66 -46 -32 -18 -64 -41 -70 -51 -7 -11
-16 -19 -22 -19 -5 0 -36 -21 -69 -45 -32 -24 -63 -42 -67 -39 -5 3 -9 1 -9
-4 0 -11 -94 -82 -108 -82 -4 0 -27 -17 -50 -39 -24 -21 -55 -44 -70 -52 -15
-7 -40 -24 -57 -38 -16 -13 -63 -39 -102 -57 -40 -19 -73 -37 -73 -42 0 -10
-50 -35 -57 -28 -3 2 -34 -6 -70 -19 -107 -39 -199 -51 -283 -36 -39 7 -74 19
-76 26 -3 7 -14 15 -25 18 -11 3 -23 15 -26 26 -3 12 -21 29 -40 37 -18 9 -41
31 -50 48 -8 17 -28 42 -44 56 -15 14 -40 46 -54 72 -14 26 -36 59 -50 74 -14
15 -25 33 -25 40 0 13 -38 56 -140 160 -46 47 -49 54 -17 54 45 0 213 32 270
51 31 10 66 19 76 19 11 0 26 6 33 13 7 7 42 23 78 35 111 37 165 57 170 63
14 15 81 49 128 64 29 10 69 28 88 41 19 13 69 38 112 55 42 17 82 38 88 45 6
8 33 23 60 35 102 44 139 61 154 70 8 5 26 14 40 20 72 32 170 81 174 87 3 5
51 28 108 53 57 24 105 47 106 51 2 5 8 8 13 8 11 0 201 91 209 100 5 5 131
63 160 73 29 10 920 7 920 -3z m1188 -25 c-18 -20 -100 -105 -183 -190 -160
-166 -363 -376 -602 -624 -81 -84 -217 -223 -300 -307 -84 -85 -153 -158 -153
-162 0 -9 -380 -384 -443 -437 -26 -22 -51 -39 -56 -38 -5 1 -23 -11 -41 -27
-19 -17 -38 -30 -44 -30 -6 0 -24 -11 -40 -25 -16 -13 -36 -26 -45 -29 -9 -2
-37 -9 -63 -16 -27 -7 -48 -16 -48 -20 0 -4 -30 -13 -66 -20 -77 -15 -196 -8
-227 13 -25 16 -137 50 -144 44 -2 -3 -39 6 -81 19 -42 14 -97 29 -122 35 -24
5 -47 14 -50 20 -6 8 -48 18 -145 34 -11 2 -20 4 -20 5 0 1 -9 3 -20 4 -11 2
-47 11 -80 21 -33 9 -72 19 -87 22 -16 3 -28 9 -28 13 0 4 -19 11 -42 14 l-43
7 35 13 c68 26 107 45 119 60 7 9 17 14 21 11 4 -3 13 2 20 10 7 8 16 15 21
15 5 0 28 14 51 30 22 17 46 30 52 30 6 0 19 8 27 18 25 27 55 49 91 68 18 9
42 26 53 36 11 11 40 33 65 49 25 16 65 44 90 63 25 19 51 35 58 35 6 1 12 6
12 11 0 6 6 10 12 10 7 0 26 15 43 34 16 18 44 40 60 49 17 8 42 26 56 38 14
13 41 32 61 42 19 10 54 36 77 58 24 21 50 39 57 39 8 0 14 4 14 10 0 5 21 21
46 36 26 15 58 38 72 51 14 13 29 23 34 23 12 0 71 45 117 88 20 19 50 40 68
48 18 8 36 20 40 28 4 7 35 30 68 51 33 21 65 43 70 49 17 18 73 56 85 56 5 0
10 5 10 10 0 6 6 10 14 10 8 0 18 9 21 20 3 11 11 20 17 20 6 0 33 16 59 35
27 19 53 35 57 35 4 0 25 16 46 35 21 19 44 35 50 35 6 0 27 18 46 40 19 22
41 40 48 40 7 0 22 8 33 18 10 11 32 25 47 33 15 7 40 25 55 40 15 14 40 32
55 40 15 7 44 28 65 46 20 18 44 33 52 33 8 0 15 4 15 9 0 5 15 18 33 30 31
20 44 21 410 21 l378 0 -33 -35z m1112 30 c0 -13 -61 -116 -84 -140 -14 -15
-26 -32 -26 -36 0 -13 -63 -99 -72 -99 -4 0 -8 -7 -8 -16 0 -8 -13 -35 -30
-59 -16 -24 -30 -48 -30 -53 0 -5 -13 -25 -30 -43 -16 -19 -30 -38 -30 -43 0
-13 -89 -153 -106 -167 -8 -6 -23 -31 -34 -55 -10 -24 -23 -44 -28 -44 -4 0
-18 -19 -31 -42 -52 -98 -67 -123 -83 -140 -9 -9 -28 -41 -42 -70 -14 -30 -36
-64 -48 -78 -26 -27 -60 -80 -82 -126 -8 -17 -22 -37 -31 -44 -9 -7 -28 -38
-43 -68 -15 -30 -35 -60 -44 -66 -10 -6 -18 -14 -18 -19 0 -4 -18 -38 -40 -75
-46 -77 -45 -76 -105 -161 -25 -36 -45 -70 -45 -77 0 -7 -3 -14 -7 -16 -12 -5
-59 -80 -68 -107 -4 -13 -19 -36 -34 -50 -14 -14 -37 -48 -51 -74 -35 -66
-122 -174 -178 -220 -26 -21 -51 -44 -57 -50 -10 -12 -97 -56 -125 -63 -67
-17 -106 -30 -112 -39 -10 -14 -224 -11 -241 3 -12 11 -70 27 -132 38 -16 3
-52 11 -80 19 -27 7 -77 19 -110 26 -33 7 -66 19 -72 25 -7 7 -32 15 -55 19
-24 4 -58 13 -76 21 -18 7 -49 15 -70 18 -49 6 -134 27 -147 37 -5 4 -27 10
-47 14 -21 4 -38 10 -38 14 0 3 18 14 39 23 21 9 52 29 67 44 16 14 52 42 81
61 29 19 55 42 58 51 3 9 25 31 50 47 25 17 45 36 45 42 0 7 18 24 39 39 22
14 47 41 56 60 9 19 27 39 40 44 14 5 35 25 47 44 13 19 33 39 44 45 12 5 35
27 50 47 16 21 74 84 129 139 55 56 165 170 245 254 173 183 294 310 430 448
55 56 100 106 100 110 0 4 48 55 108 115 59 59 157 161 218 225 62 65 145 153
186 196 l75 77 341 0 c188 0 342 -2 342 -5z m923 -1 c3 -4 0 -23 -8 -43 -7
-20 -19 -61 -25 -91 -7 -30 -23 -75 -35 -100 -36 -70 -55 -119 -55 -138 0 -23
-38 -138 -60 -182 -10 -19 -22 -53 -26 -74 -4 -21 -16 -62 -26 -90 -11 -28
-24 -68 -30 -88 -6 -21 -14 -38 -18 -38 -4 0 -13 -21 -19 -47 -18 -72 -74
-247 -81 -253 -3 -3 -13 -30 -22 -60 -23 -79 -72 -214 -79 -220 -6 -4 -19 -55
-21 -77 0 -5 -11 -36 -24 -71 -13 -34 -29 -84 -35 -110 -5 -25 -13 -49 -17
-52 -12 -8 -73 -170 -79 -209 -3 -20 -14 -52 -23 -71 -22 -43 -70 -188 -70
-210 0 -9 -11 -38 -24 -66 -13 -27 -34 -74 -46 -104 -38 -98 -60 -140 -70
-140 -5 0 -10 -7 -10 -15 0 -8 -4 -15 -9 -15 -5 0 -13 -10 -16 -22 -7 -23 -30
-47 -93 -100 -18 -15 -59 -35 -92 -44 -34 -9 -63 -21 -66 -25 -7 -11 -134 -12
-134 -1 0 7 -123 38 -192 48 -18 3 -49 11 -68 18 -34 13 -111 30 -119 26 -2
-1 -7 4 -12 11 -4 7 -18 13 -31 15 -12 1 -57 9 -98 18 -64 15 -108 27 -235 63
-11 4 -22 10 -26 14 -3 5 -18 10 -35 12 -50 6 -134 30 -134 39 0 5 10 12 23
17 12 5 38 24 58 42 20 19 47 44 60 55 71 64 202 242 272 369 15 27 32 52 37
53 6 2 10 8 10 14 0 5 14 29 30 53 17 24 30 50 30 58 0 8 13 28 29 43 16 16
38 51 50 77 12 26 30 56 39 66 20 20 29 35 73 111 18 30 40 64 49 75 9 11 27
41 40 66 12 26 32 58 45 71 12 13 41 60 65 103 23 44 45 82 49 85 13 10 91
129 91 138 0 6 6 17 14 24 7 8 30 45 51 83 20 38 43 74 49 80 16 13 76 112 76
125 0 5 12 22 26 37 14 15 42 57 62 93 20 36 39 67 42 70 15 13 48 67 53 90 4
14 22 42 41 62 19 21 38 47 41 59 4 13 24 47 44 77 46 70 70 108 100 160 l25
42 291 0 c160 0 294 -3 298 -6z m1026 -59 c8 -33 17 -62 21 -65 8 -6 44 -111
71 -205 11 -38 26 -82 34 -97 7 -14 32 -90 55 -169 23 -78 48 -152 55 -163 13
-21 39 -100 70 -216 10 -36 23 -74 30 -85 6 -11 19 -49 30 -85 27 -97 68 -214
76 -220 6 -4 58 -180 76 -257 3 -13 9 -23 13 -23 4 0 12 -19 19 -42 25 -91 86
-273 93 -278 4 -3 14 -35 23 -70 22 -95 59 -206 74 -224 11 -13 11 -16 0 -16
-11 0 -11 -2 -1 -8 12 -8 24 -39 84 -207 11 -33 29 -71 39 -85 9 -14 29 -51
43 -83 15 -31 36 -66 48 -77 12 -11 18 -23 15 -27 -4 -3 -7 -1 -7 5 0 7 -5 12
-11 12 -7 0 -34 16 -60 35 -27 19 -51 35 -53 35 -5 0 -110 101 -272 260 -53
52 -114 109 -137 125 -22 17 -48 44 -57 60 -9 17 -28 36 -43 43 -14 7 -40 30
-57 52 -18 22 -37 40 -44 40 -7 0 -27 20 -44 45 -18 25 -40 49 -50 52 -9 4
-37 28 -63 55 -25 26 -48 48 -52 48 -3 0 -17 10 -30 23 -55 52 -77 64 -187
108 -68 27 -217 37 -287 20 -50 -13 -167 -67 -193 -89 -8 -7 -33 -27 -55 -43
-59 -45 -136 -113 -239 -214 -51 -49 -146 -139 -211 -200 -65 -60 -143 -135
-174 -165 -31 -30 -67 -64 -81 -76 -14 -11 -37 -34 -51 -50 -46 -51 -140 -134
-153 -134 -6 0 -18 -9 -26 -21 -8 -11 -23 -25 -33 -31 -18 -9 -18 -8 -1 19 10
15 28 42 40 58 11 17 27 45 34 63 7 17 16 32 21 32 4 0 13 19 19 42 7 22 18
51 25 62 7 12 21 48 31 81 9 33 27 83 39 110 13 28 36 91 51 140 16 50 31 92
34 95 5 4 40 108 46 135 12 56 47 171 53 175 8 6 53 137 83 245 11 38 23 72
27 75 5 3 25 68 47 144 21 77 43 144 49 150 10 11 25 54 71 211 15 50 30 95
35 100 4 6 15 37 24 70 24 88 77 239 85 245 5 4 31 92 35 120 2 17 50 156 55
160 3 3 14 33 23 66 9 34 26 87 38 118 l21 56 351 -2 351 -3 15 -60z m908 -4
c19 -35 45 -73 57 -85 11 -11 34 -49 50 -83 17 -35 33 -63 37 -63 3 0 23 -31
42 -68 20 -37 46 -77 57 -87 12 -11 30 -36 39 -55 33 -66 56 -103 79 -126 12
-13 22 -28 22 -34 0 -10 48 -89 61 -100 3 -3 15 -26 27 -51 12 -25 30 -54 39
-65 20 -23 27 -32 83 -126 22 -37 43 -74 47 -83 3 -9 19 -31 34 -48 16 -17 40
-55 54 -84 13 -29 28 -53 32 -53 5 0 21 -26 37 -58 16 -31 45 -76 64 -100 19
-24 47 -70 63 -102 15 -32 34 -62 41 -67 14 -8 19 -17 63 -101 15 -29 30 -52
34 -52 4 0 20 -25 35 -56 16 -31 41 -71 55 -88 27 -32 39 -51 79 -126 13 -25
32 -53 43 -63 10 -10 19 -22 19 -28 0 -5 16 -33 35 -62 19 -28 35 -55 35 -59
0 -3 12 -19 28 -35 15 -16 41 -44 57 -63 41 -46 123 -121 159 -143 15 -10 26
-20 24 -22 -2 -3 -40 -12 -84 -21 -43 -9 -84 -20 -90 -25 -13 -11 -215 -69
-259 -75 -16 -2 -43 -7 -60 -11 -16 -4 -33 -6 -37 -5 -5 1 -8 -2 -8 -7 0 -5
-12 -11 -27 -14 -16 -3 -59 -15 -98 -26 -38 -12 -84 -23 -102 -26 -18 -2 -56
-11 -84 -19 -29 -9 -63 -16 -76 -16 -13 0 -23 -4 -23 -10 0 -6 -30 -10 -70
-10 -38 0 -70 4 -70 8 0 5 -28 17 -62 27 -52 16 -74 30 -124 80 -34 34 -71 79
-83 101 -12 21 -33 58 -47 81 -14 24 -34 73 -44 109 -11 37 -26 74 -34 83 -8
9 -26 61 -41 116 -15 55 -30 109 -33 120 -3 11 -14 32 -24 47 -11 16 -30 65
-43 110 -12 46 -35 115 -50 153 -15 39 -30 84 -35 100 -5 17 -20 64 -35 105
-14 41 -31 92 -37 113 -6 20 -14 37 -19 37 -5 0 -9 7 -9 16 0 8 -13 53 -29 98
-16 46 -34 109 -40 140 -6 31 -17 64 -26 72 -8 9 -15 21 -15 29 0 7 -9 35 -21
62 -11 26 -29 81 -39 122 -11 41 -23 77 -28 80 -8 6 -34 85 -67 206 -10 33
-20 62 -24 65 -9 7 -58 145 -67 190 -3 19 -14 51 -24 70 -22 46 -56 145 -64
193 l-7 37 297 -2 297 -3 34 -64z m1041 1 c37 -38 146 -151 242 -251 96 -101
246 -254 333 -341 86 -87 157 -163 157 -169 0 -6 6 -11 14 -11 8 0 16 -5 18
-11 4 -13 202 -222 341 -360 59 -59 107 -111 107 -115 0 -5 43 -50 95 -100 52
-50 95 -94 95 -99 0 -4 43 -50 95 -101 52 -52 95 -97 95 -102 0 -7 52 -57 221
-214 29 -27 57 -48 64 -48 7 0 26 -15 42 -32 30 -34 74 -65 106 -75 28 -9 20
-22 -18 -29 -19 -3 -35 -9 -35 -13 0 -4 -11 -8 -24 -9 -45 -3 -335 -81 -358
-95 -13 -8 -53 -20 -91 -26 -37 -7 -80 -16 -94 -22 -15 -6 -61 -17 -102 -24
-41 -8 -78 -20 -82 -27 -10 -16 -257 -17 -267 -2 -4 6 -27 16 -52 23 -25 7
-63 23 -85 34 -77 41 -219 172 -246 227 -7 14 -23 34 -35 45 -11 11 -31 39
-42 61 -12 23 -33 55 -47 72 -14 16 -25 33 -25 38 0 11 -83 138 -93 142 -4 2
-19 27 -33 55 -15 29 -37 66 -50 84 -13 17 -24 36 -24 41 0 6 -15 28 -33 50
-19 22 -40 54 -47 71 -7 17 -16 31 -20 31 -5 0 -18 19 -30 43 -33 65 -58 106
-80 130 -12 12 -32 45 -45 74 -14 28 -30 55 -36 58 -11 7 -99 141 -99 151 0 2
-8 14 -18 24 -10 11 -29 41 -42 67 -12 27 -36 61 -51 77 -16 15 -29 35 -29 43
0 8 -12 33 -27 56 -16 23 -32 50 -38 58 -43 69 -109 165 -116 167 -5 2 -9 9
-9 15 0 7 -16 36 -35 64 -19 29 -35 55 -35 59 0 4 -12 23 -27 43 -16 20 -34
46 -40 59 -40 75 -61 109 -85 136 -16 17 -28 34 -28 38 0 5 153 8 341 8 l341
0 66 -68z m1123 43 c13 -13 29 -25 35 -25 5 0 25 -16 44 -35 19 -19 39 -35 44
-35 6 0 29 -14 50 -30 22 -17 43 -30 47 -30 4 0 21 -13 38 -29 17 -15 46 -36
64 -45 19 -8 41 -26 49 -38 9 -13 28 -30 44 -38 42 -21 87 -53 101 -70 6 -8
15 -15 20 -15 16 0 123 -77 123 -88 0 -10 83 -69 171 -122 56 -35 99 -70 99
-81 0 -8 8 -14 19 -14 17 0 68 -34 114 -75 10 -9 43 -32 75 -52 31 -20 80 -55
107 -78 28 -22 59 -48 71 -56 12 -7 50 -35 85 -61 34 -27 68 -48 74 -48 6 0
22 -12 36 -26 13 -14 39 -32 57 -41 18 -9 47 -30 65 -47 17 -18 61 -50 97 -71
36 -22 75 -50 86 -62 12 -13 26 -23 33 -23 6 0 11 -4 11 -10 0 -5 7 -10 15
-10 8 0 24 -13 36 -29 18 -25 39 -38 71 -45 3 0 25 -18 48 -38 23 -21 44 -38
47 -38 9 0 137 -82 144 -92 3 -6 9 -9 13 -8 12 2 156 -73 156 -82 0 -4 -13 -8
-30 -8 -16 0 -30 -4 -30 -9 0 -8 -255 -74 -337 -86 -24 -4 -43 -10 -43 -14 0
-8 -148 -50 -300 -86 -41 -10 -78 -23 -81 -28 -4 -5 -21 -10 -38 -12 -17 -1
-34 -5 -38 -9 -8 -8 -138 -8 -146 0 -4 4 -25 8 -49 11 -23 2 -45 8 -48 13 -3
5 -31 18 -60 29 -73 25 -110 43 -110 52 0 4 -9 11 -20 14 -11 4 -31 16 -44 29
-14 12 -37 28 -53 36 -15 8 -48 32 -72 55 -64 58 -375 373 -601 606 -107 111
-264 271 -347 355 -84 85 -153 157 -153 161 0 4 -69 76 -154 159 -85 84 -166
169 -181 188 -15 20 -33 36 -41 36 -7 0 -26 19 -41 43 -16 23 -41 48 -56 55
-15 7 -27 19 -27 27 0 12 -47 58 -86 82 -15 9 67 12 377 12 l397 1 23 -25z
m1339 14 c0 -5 5 -7 10 -4 8 5 87 -30 150 -67 8 -5 24 -12 35 -15 11 -4 54
-24 95 -46 165 -87 187 -98 238 -117 30 -11 60 -27 69 -35 8 -8 21 -15 29 -15
8 0 32 -11 52 -25 20 -14 54 -30 74 -35 20 -6 43 -16 50 -23 12 -12 87 -46
168 -78 19 -7 42 -21 50 -30 8 -9 47 -29 85 -44 39 -15 80 -33 93 -41 12 -8
22 -11 22 -7 0 5 5 0 11 -9 5 -10 18 -18 27 -18 10 0 23 -5 30 -12 7 -7 12 -9
12 -4 0 4 12 1 28 -7 15 -8 47 -25 72 -37 25 -13 47 -27 50 -30 3 -4 37 -17
76 -29 39 -12 97 -35 129 -52 32 -17 72 -32 89 -34 17 -1 76 -14 131 -28 55
-14 129 -29 164 -33 l64 -9 -52 -55 c-28 -30 -53 -62 -56 -71 -3 -10 -16 -24
-28 -32 -13 -8 -33 -35 -46 -60 -20 -40 -40 -67 -122 -169 -37 -46 -155 -162
-194 -190 -66 -48 -198 -50 -336 -3 -40 14 -74 23 -77 21 -7 -7 -73 24 -96 45
-11 11 -33 23 -48 26 -16 3 -28 9 -28 14 0 4 -8 10 -18 13 -10 4 -27 14 -38
24 -10 10 -44 31 -74 47 -30 16 -71 44 -90 62 -19 19 -49 41 -67 51 -54 28
-177 114 -186 129 -4 7 -12 13 -17 13 -4 0 -24 14 -43 31 -36 32 -64 50 -105
68 -12 6 -25 18 -28 26 -4 8 -10 15 -15 15 -13 0 -109 64 -139 93 -14 13 -49
36 -77 51 -29 16 -54 35 -57 42 -3 7 -22 22 -43 33 -21 10 -49 29 -63 41 -14
12 -52 40 -85 63 -33 22 -72 52 -87 67 -15 14 -48 37 -73 50 -26 13 -57 34
-68 47 -12 12 -27 23 -33 23 -6 0 -23 11 -37 24 -37 35 -153 116 -164 116 -5
0 -29 18 -53 40 -24 22 -46 40 -50 40 -3 0 -15 8 -26 18 -10 9 -31 23 -46 31
-16 8 -28 20 -28 28 0 7 -3 12 -7 11 -5 -2 -28 11 -53 28 -25 17 -52 34 -60
37 -8 3 193 6 448 6 319 1 462 -2 462 -10z m1865 0 c11 -3 60 -17 108 -32 48
-15 92 -25 97 -22 5 3 11 1 15 -5 4 -6 11 -8 16 -5 5 4 9 2 9 -4 0 -5 24 -14
53 -20 81 -17 292 -84 296 -94 2 -5 7 -3 12 4 6 10 11 11 17 3 7 -11 131 -54
168 -59 52 -7 180 -39 184 -46 6 -9 246 -80 258 -77 4 1 35 -4 70 -12 60 -14
81 -28 45 -32 -29 -2 -35 -3 -108 -27 -38 -12 -88 -24 -110 -27 -22 -3 -62
-16 -90 -29 -67 -31 -245 -77 -345 -89 -19 -3 -37 -5 -40 -6 -3 -1 -13 -1 -23
0 -10 1 -24 -3 -31 -9 -25 -21 -230 -33 -354 -22 -63 6 -119 15 -126 20 -6 5
-31 12 -56 14 -63 8 -189 42 -225 61 -16 9 -34 16 -38 16 -5 0 -15 7 -23 15
-8 8 -33 19 -55 25 -22 6 -55 20 -72 31 -18 10 -39 19 -48 19 -9 0 -26 9 -38
19 -12 10 -36 24 -54 31 -60 22 -167 75 -167 83 0 4 -7 7 -16 7 -8 0 -53 18
-99 40 -46 22 -90 40 -99 40 -8 0 -16 3 -18 8 -3 7 -173 98 -173 92 0 -2 -10
0 -22 4 -13 4 -23 12 -23 17 0 5 -3 8 -7 7 -5 -1 -31 10 -60 25 -29 15 -60 27
-70 27 -10 0 -25 5 -33 10 -15 10 1231 8 1275 -1z"/>
<path d="M16545 16150 c-74 -15 -169 -51 -205 -79 -19 -15 -52 -37 -72 -50
-20 -12 -46 -37 -57 -57 -11 -19 -27 -37 -35 -40 -16 -6 -78 -111 -91 -154 -4
-14 -13 -28 -19 -32 -8 -5 -11 -78 -11 -232 0 -199 2 -226 18 -243 9 -11 17
-23 17 -27 0 -12 60 -130 75 -146 8 -8 31 -34 51 -57 20 -24 42 -43 50 -43 7
0 19 -8 26 -18 14 -20 105 -72 125 -72 7 0 13 -4 13 -10 0 -5 17 -12 38 -16
20 -4 40 -12 44 -18 10 -15 316 -15 326 0 4 6 18 15 32 19 46 14 168 75 196
98 41 33 96 89 128 130 30 37 40 61 77 172 11 33 24 68 30 79 13 23 13 280 -1
284 -6 2 -10 14 -10 27 0 44 -64 200 -95 231 -6 6 -28 34 -50 62 -21 29 -43
52 -48 52 -4 0 -29 16 -54 35 -25 19 -52 35 -59 35 -8 0 -14 5 -14 10 0 6 -6
10 -12 10 -7 0 -26 7 -41 15 -72 37 -268 56 -372 35z m236 -204 c78 -29 160
-106 178 -166 6 -21 18 -45 26 -53 24 -25 47 -125 47 -215 1 -88 -27 -252 -43
-252 -5 0 -23 -30 -41 -66 -23 -47 -43 -73 -69 -89 -20 -13 -43 -30 -51 -38
-59 -59 -247 -62 -301 -6 -10 11 -22 19 -27 19 -20 0 -82 65 -97 102 -8 21
-19 38 -23 38 -4 0 -19 35 -34 78 -22 66 -26 94 -26 196 0 155 17 219 83 317
49 72 72 93 142 128 74 37 150 39 236 7z"/>
<path d="M14650 16144 c-89 -17 -148 -47 -213 -105 -95 -86 -130 -156 -131
-264 0 -72 3 -86 33 -140 35 -64 77 -115 96 -115 7 0 28 -15 47 -34 26 -25 64
-44 138 -70 57 -19 108 -40 113 -45 6 -6 18 -11 28 -11 9 0 37 -16 62 -35 39
-30 47 -42 52 -80 5 -28 2 -60 -6 -86 -12 -35 -22 -47 -64 -68 -27 -14 -52
-29 -56 -34 -3 -4 -35 -10 -70 -13 -48 -5 -69 -3 -80 7 -8 8 -31 23 -52 33
-46 24 -119 103 -132 145 -5 18 -14 21 -66 21 l-59 0 0 -132 c0 -150 5 -178
30 -178 9 0 27 -9 40 -20 19 -17 111 -50 138 -50 6 0 12 -5 14 -11 5 -15 238
-15 247 -1 3 6 20 14 36 18 59 14 174 77 219 119 25 24 60 72 78 107 30 57 33
71 33 153 0 84 -3 95 -37 165 -30 60 -46 81 -85 108 -27 17 -55 32 -64 32 -9
0 -29 11 -44 24 -28 24 -107 56 -153 61 -13 1 -36 12 -51 23 -16 11 -44 27
-64 35 -37 16 -56 41 -67 93 -12 52 33 124 90 146 57 22 133 22 187 2 32 -12
49 -28 68 -60 14 -24 34 -45 43 -45 99 -7 94 -13 90 114 -3 124 -12 144 -65
153 -16 3 -50 12 -78 20 -52 16 -201 26 -245 18z"/>
<path d="M13639 16113 c-6 -16 -32 -73 -60 -129 -27 -55 -49 -110 -49 -122 0
-11 -6 -27 -13 -34 -13 -12 -41 -73 -85 -183 -9 -22 -19 -42 -22 -45 -9 -8
-58 -122 -76 -177 -10 -29 -21 -53 -26 -53 -8 0 -48 -86 -48 -105 0 -16 -38
-98 -68 -145 -12 -19 -22 -42 -22 -51 0 -21 -60 -153 -71 -157 -5 -2 -9 -10
-9 -18 0 -11 24 -14 124 -14 l124 0 7 33 c11 53 58 192 68 198 5 4 15 29 22
55 l12 49 208 3 c115 1 212 -1 217 -6 4 -4 15 -35 23 -67 9 -33 20 -62 24 -65
5 -3 24 -48 44 -100 l35 -95 146 -3 c136 -2 146 -1 146 16 0 10 -4 22 -8 27
-5 6 -17 36 -26 68 -10 32 -24 64 -31 71 -7 7 -26 48 -41 92 -15 43 -31 83
-36 89 -4 5 -8 17 -8 27 0 10 -4 18 -9 18 -9 0 -43 74 -77 169 -12 35 -26 66
-32 70 -5 3 -19 38 -32 76 -23 71 -57 146 -70 155 -4 3 -17 34 -30 70 -13 36
-31 86 -40 113 -9 26 -24 55 -32 65 -8 9 -23 43 -33 75 l-19 57 -58 0 c-55 0
-59 -2 -69 -27z m44 -432 c3 -16 13 -36 22 -44 8 -9 15 -21 15 -27 0 -6 8 -30
19 -53 44 -99 61 -140 61 -148 0 -5 -58 -9 -130 -9 -110 0 -130 2 -130 15 0
18 59 147 70 155 4 3 11 16 14 30 16 54 39 110 46 110 4 0 10 -13 13 -29z"/>
<path d="M21064 16113 c-4 -16 -13 -37 -20 -49 -8 -11 -23 -47 -34 -79 -11
-32 -24 -61 -29 -65 -5 -3 -27 -52 -50 -109 -22 -58 -45 -107 -49 -110 -11 -9
-59 -121 -67 -159 -4 -18 -12 -38 -19 -45 -10 -11 -40 -74 -91 -194 -10 -24
-21 -43 -24 -43 -4 0 -15 -26 -25 -57 -22 -70 -72 -179 -85 -187 -5 -4 -12
-20 -16 -37 -4 -17 -13 -42 -21 -57 -8 -15 -14 -31 -14 -35 0 -4 55 -6 123 -5
l122 3 10 40 c5 22 15 46 22 53 7 7 13 19 14 25 2 37 12 77 29 113 10 23 21
56 25 73 l7 31 208 0 c222 0 240 -4 240 -50 0 -11 9 -39 19 -62 11 -24 27 -71
38 -105 10 -35 21 -63 25 -63 3 0 11 -14 17 -31 l10 -30 146 2 c132 2 145 3
145 20 0 10 -7 24 -15 33 -8 8 -15 21 -15 28 0 7 -6 23 -14 34 -8 11 -19 40
-26 64 -14 51 -38 108 -55 130 -7 8 -27 56 -46 105 -18 50 -38 97 -44 105 -13
17 -36 73 -67 164 -11 34 -26 66 -33 72 -13 9 -28 46 -78 189 -12 33 -27 66
-33 72 -7 7 -17 30 -24 50 -15 51 -73 176 -85 185 -5 4 -34 8 -62 8 -49 0 -53
-2 -59 -27z m40 -418 c4 -14 17 -49 30 -78 13 -28 30 -72 37 -97 7 -25 16 -47
20 -50 3 -3 14 -20 23 -37 l17 -33 -136 0 c-143 0 -151 3 -121 45 7 11 17 31
21 45 15 52 89 230 96 230 4 0 10 -11 13 -25z"/>
<path d="M21768 15586 c-1 -300 -3 -581 -3 -623 l0 -78 128 -3 127 -3 0 254 0
255 25 0 c17 0 31 -10 42 -29 10 -16 22 -29 28 -29 5 0 30 -29 54 -65 24 -36
47 -65 52 -65 5 0 17 -13 27 -29 10 -16 32 -47 50 -68 69 -83 112 -141 112
-152 0 -6 6 -11 14 -11 7 0 21 -11 30 -25 16 -25 17 -25 171 -25 85 0 155 2
155 5 0 9 -42 64 -82 109 -21 22 -38 45 -38 49 0 5 -20 29 -45 54 -25 25 -52
58 -61 74 -8 16 -19 29 -24 29 -5 0 -22 19 -39 43 -16 23 -54 68 -85 101 -31
32 -56 64 -56 71 0 7 14 18 31 25 17 7 36 18 42 24 7 6 33 27 59 46 39 30 52
48 78 115 29 72 32 87 28 160 -7 118 -44 178 -178 288 -40 33 -96 40 -367 44
l-273 5 -2 -546z m418 353 c3 -6 15 -8 27 -5 14 3 29 -5 51 -28 55 -59 76 -87
77 -107 3 -53 2 -66 -4 -92 -10 -35 -42 -76 -97 -120 -28 -23 -135 -42 -184
-33 l-36 7 0 194 0 195 79 0 c47 0 83 -5 87 -11z"/>
<path d="M15080 16004 l0 -107 68 7 c37 3 120 9 185 13 l117 6 0 -507 c0 -426
2 -510 14 -522 20 -20 228 -20 245 0 8 10 11 154 11 517 l-1 504 23 4 c25 3
258 -17 296 -26 22 -5 22 -4 22 106 l0 111 -490 0 -490 0 0 -106z"/>
<path d="M17442 15498 l3 -613 105 0 105 0 5 394 5 394 55 -64 c69 -79 109
-119 121 -119 5 0 9 -5 9 -11 0 -20 42 -70 66 -79 13 -5 24 -17 24 -26 0 -15
67 -83 83 -84 4 0 7 -6 7 -13 0 -8 15 -30 33 -49 17 -19 50 -55 72 -80 22 -24
60 -67 85 -94 25 -28 69 -78 99 -112 l53 -62 64 0 64 0 0 615 0 615 -100 0
-100 0 -1 -47 c0 -27 0 -197 0 -380 l-1 -332 -58 62 c-32 34 -78 85 -103 112
-25 28 -70 76 -99 107 -29 32 -78 85 -108 119 -30 34 -81 90 -113 123 -32 34
-68 76 -80 94 -12 17 -30 35 -40 38 -9 3 -24 19 -32 35 -9 16 -21 29 -28 29
-7 0 -18 9 -25 20 -10 17 -23 20 -92 20 l-80 0 2 -612z"/>
<path d="M19266 16095 c-3 -9 -6 -28 -6 -41 0 -13 -4 -24 -8 -24 -8 0 -16 -53
-78 -550 -15 -118 -30 -217 -34 -220 -9 -6 -28 -162 -30 -250 -1 -36 -3 -78
-4 -95 l-1 -30 101 -3 101 -3 6 53 c3 29 11 122 18 206 7 83 16 152 19 152 4
0 13 63 20 140 l13 140 34 -57 c18 -32 38 -65 43 -73 5 -8 26 -51 46 -95 21
-44 42 -83 46 -86 5 -3 16 -28 26 -55 10 -27 28 -68 40 -91 12 -23 22 -47 22
-52 0 -6 13 -29 28 -53 16 -24 34 -58 42 -75 12 -31 16 -33 60 -33 44 0 48 2
53 29 3 16 20 50 36 76 17 26 44 82 62 124 17 42 37 83 44 91 7 8 29 53 50
100 21 47 45 92 54 101 9 9 32 52 51 97 19 45 38 82 42 82 11 0 17 -48 28
-215 6 -88 17 -232 25 -320 8 -88 15 -166 15 -172 0 -10 35 -13 140 -13 127 0
140 2 140 18 0 9 -10 87 -21 172 -12 85 -25 200 -29 255 -12 175 -83 710 -94
718 -8 6 -8 10 0 13 9 4 9 11 0 29 -10 22 -17 25 -71 25 -57 0 -61 -2 -72 -27
-14 -34 -55 -106 -65 -113 -3 -3 -20 -35 -37 -72 -17 -37 -37 -73 -44 -80 -16
-16 -77 -140 -77 -156 0 -6 -11 -23 -23 -39 -13 -15 -36 -55 -51 -88 -34 -75
-55 -113 -75 -137 -9 -10 -18 -28 -21 -40 -9 -35 -27 -32 -40 7 -7 20 -18 39
-25 41 -7 3 -22 31 -34 63 -11 32 -30 66 -41 76 -11 10 -20 24 -20 31 0 7 -6
19 -13 26 -7 7 -22 36 -32 63 -10 28 -24 57 -32 66 -7 8 -18 31 -25 50 -6 19
-14 36 -18 39 -4 3 -26 43 -50 90 -23 47 -55 110 -71 140 l-28 55 -64 3 c-52
2 -66 0 -71 -13z"/>
<path d="M22620 16004 l0 -107 68 7 c37 4 122 10 190 12 l122 5 0 -521 0 -520
125 0 125 0 0 520 0 520 44 0 c47 0 230 -16 284 -25 l32 -6 0 111 0 110 -495
0 -495 0 0 -106z"/>
<path d="M23706 16094 c-11 -28 -7 -1174 4 -1195 10 -17 22 -19 135 -19 l125
0 0 615 0 615 -129 0 c-108 0 -130 -3 -135 -16z"/>
<path d="M24202 15498 l3 -613 94 -3 c69 -2 97 1 103 10 4 7 8 186 8 396 l0
384 34 -29 c18 -15 40 -39 49 -53 8 -14 41 -52 71 -85 31 -33 56 -63 56 -67 0
-4 18 -20 40 -34 22 -14 42 -35 46 -47 3 -11 19 -31 35 -45 16 -13 29 -27 29
-31 0 -4 32 -41 71 -82 39 -41 83 -90 98 -109 14 -19 40 -49 56 -65 17 -17 52
-56 79 -88 l49 -57 63 0 64 0 0 615 0 615 -100 0 -100 0 0 -375 c0 -206 -2
-375 -4 -375 -5 0 -92 90 -151 156 -27 31 -74 80 -102 109 -29 28 -53 56 -53
61 0 5 -20 29 -45 54 -25 25 -75 78 -112 119 -38 41 -88 95 -113 121 -25 27
-55 58 -67 71 -52 57 -57 59 -131 59 l-72 0 2 -612z"/>
<path d="M11730 7474 c0 -6 -31 -14 -72 -19 -40 -4 -86 -9 -103 -10 -16 -2
-32 -4 -35 -5 -3 -1 -8 -2 -11 -2 -4 1 -47 -10 -95 -24 -49 -14 -101 -28 -116
-31 -16 -3 -28 -9 -28 -14 0 -5 -5 -9 -11 -9 -6 0 -25 -6 -42 -14 -18 -8 -66
-29 -107 -46 -41 -17 -80 -37 -86 -45 -6 -8 -35 -26 -65 -41 -30 -15 -62 -35
-71 -45 -25 -25 -104 -79 -117 -79 -6 0 -11 -6 -11 -12 -1 -7 -29 -35 -64 -63
-55 -44 -97 -90 -131 -144 -6 -9 -29 -35 -53 -59 -23 -24 -42 -49 -42 -56 0
-7 -9 -22 -19 -33 -19 -20 -67 -103 -100 -170 -8 -18 -18 -33 -23 -33 -4 0
-25 -58 -48 -130 -22 -71 -45 -132 -49 -134 -7 -5 -14 -34 -41 -181 -35 -189
-47 -406 -31 -575 16 -177 57 -420 70 -420 4 0 19 -42 35 -92 15 -51 34 -108
42 -126 8 -18 14 -39 14 -46 0 -8 7 -16 15 -19 13 -6 55 -85 55 -105 0 -4 15
-26 33 -48 29 -35 74 -97 102 -141 6 -8 21 -27 35 -42 14 -15 41 -45 60 -67
63 -71 228 -206 313 -256 29 -17 63 -41 76 -54 13 -13 30 -24 37 -24 25 0 29
-1 61 -21 18 -11 45 -22 60 -25 15 -3 33 -11 38 -18 14 -18 259 -93 338 -103
20 -3 37 -9 37 -14 0 -5 27 -9 60 -9 33 0 60 -4 60 -8 0 -10 391 -10 405 0 6
4 37 7 69 7 33 0 62 3 65 8 3 4 40 16 81 26 101 25 274 79 280 88 3 4 25 15
50 24 25 10 63 26 86 36 22 11 44 19 49 19 4 0 20 13 36 29 15 16 50 41 78 55
28 14 68 41 88 61 20 19 41 35 47 35 6 0 22 16 35 35 13 19 29 35 35 35 15 0
66 52 66 66 0 6 18 25 41 43 22 18 47 48 56 66 9 18 24 35 33 38 9 2 27 25 39
50 12 25 34 63 50 84 76 106 147 277 202 488 7 28 16 52 20 55 19 13 52 423
44 540 -12 174 -36 365 -45 368 -6 2 -10 12 -10 22 0 9 -16 66 -35 124 -19 59
-35 113 -35 119 0 7 -20 54 -45 105 -25 52 -45 98 -45 103 0 5 -8 17 -17 27
-20 20 -28 35 -74 118 -16 31 -43 68 -58 82 -16 15 -32 37 -36 50 -4 13 -20
32 -37 42 -16 10 -39 32 -49 49 -11 18 -35 41 -54 53 -20 11 -42 33 -51 49 -8
16 -18 29 -23 29 -10 0 -113 69 -121 81 -4 5 -26 19 -50 32 -58 29 -91 49
-106 63 -7 6 -27 17 -46 23 -18 7 -58 23 -88 36 -30 13 -66 26 -80 30 -14 4
-28 12 -31 17 -3 5 -17 11 -30 13 -13 2 -64 15 -114 29 -92 26 -142 34 -259
41 -37 3 -74 9 -81 15 -9 8 -14 7 -17 -2 -4 -10 -8 -10 -21 1 -11 9 -17 10
-17 2 0 -6 -7 -11 -15 -11 -8 0 -15 5 -15 11 0 8 -5 7 -16 -2 -13 -10 -17 -10
-24 0 -6 11 -9 11 -12 0 -4 -11 -9 -12 -26 -2 -16 10 -21 10 -25 0 -3 -9 -7
-9 -19 1 -13 10 -17 10 -22 0 -5 -10 -7 -10 -12 -1 -4 10 -10 10 -25 0 -16
-10 -21 -9 -29 3 -5 8 -10 10 -10 4z m316 -434 c23 -5 58 -12 79 -14 47 -6
164 -55 188 -79 10 -10 22 -15 26 -12 5 2 14 -2 21 -10 7 -8 18 -15 25 -15 7
0 27 -13 43 -29 17 -15 54 -45 81 -67 28 -21 51 -44 51 -51 0 -7 11 -20 25
-29 14 -9 41 -43 61 -75 19 -33 44 -64 55 -69 10 -6 19 -16 19 -22 0 -15 62
-140 77 -156 7 -7 18 -32 24 -55 6 -23 22 -78 35 -121 13 -44 24 -87 24 -97 0
-9 4 -19 10 -21 5 -1 12 -25 15 -53 3 -27 10 -79 15 -115 18 -118 23 -332 11
-455 -15 -168 -31 -277 -40 -290 -5 -5 -23 -59 -40 -120 -42 -143 -49 -160
-88 -220 -18 -27 -33 -57 -33 -65 0 -9 -14 -32 -31 -51 -17 -19 -38 -47 -46
-64 -36 -73 -206 -231 -285 -267 -27 -12 -48 -25 -48 -29 0 -10 -113 -54 -177
-69 -29 -6 -53 -15 -53 -19 0 -5 -44 -13 -97 -20 -101 -12 -261 0 -274 20 -3
5 -30 13 -60 18 -61 11 -189 65 -189 81 0 5 -6 10 -14 10 -19 0 -116 60 -116
71 0 5 -4 9 -9 9 -10 0 -111 98 -160 156 -18 21 -51 72 -72 113 -22 41 -46 79
-54 85 -15 11 -44 81 -72 171 -9 28 -19 52 -23 55 -10 7 -35 122 -66 305 -26
155 -23 464 6 620 12 66 25 140 29 165 4 25 14 61 23 80 18 41 61 158 78 213
7 21 18 41 26 44 8 3 27 31 43 63 41 81 52 98 81 129 14 15 39 42 56 61 38 44
130 130 138 130 3 0 24 13 47 29 22 17 46 28 53 25 6 -2 21 3 31 13 30 27 130
72 175 79 14 2 48 8 75 13 68 12 251 13 301 1z"/>
<path d="M6083 7437 c-2 -4 -9 -5 -14 -1 -11 7 -158 -24 -174 -37 -6 -4 -26
-11 -45 -14 -19 -3 -37 -9 -40 -13 -6 -9 -77 -42 -89 -42 -9 0 -119 -63 -138
-80 -7 -5 -14 -10 -17 -10 -3 0 -16 -11 -30 -25 -14 -14 -31 -25 -39 -25 -8 0
-26 -18 -41 -40 -14 -22 -39 -46 -56 -55 -16 -8 -37 -29 -45 -45 -8 -16 -23
-34 -33 -39 -10 -5 -38 -43 -61 -83 -24 -40 -47 -75 -50 -78 -18 -14 -91 -246
-91 -288 0 -12 -4 -22 -10 -22 -6 0 -10 -47 -10 -120 0 -73 4 -120 10 -120 6
0 10 -9 10 -21 0 -42 78 -256 104 -283 14 -16 28 -38 32 -49 10 -32 46 -77 61
-77 7 0 24 -18 38 -40 14 -23 37 -45 50 -50 13 -5 33 -22 45 -38 12 -17 46
-42 76 -58 29 -15 66 -39 81 -52 35 -30 64 -45 131 -66 29 -10 59 -25 68 -33
8 -9 50 -26 92 -38 102 -30 184 -62 192 -75 3 -5 28 -14 56 -19 82 -17 221
-65 234 -82 3 -4 34 -22 70 -40 37 -20 91 -60 125 -95 72 -72 78 -81 107 -136
21 -39 23 -57 23 -189 0 -133 -2 -150 -24 -197 -14 -29 -28 -52 -33 -52 -4 0
-8 -5 -8 -11 0 -42 -157 -170 -224 -185 -17 -3 -38 -12 -46 -18 -66 -54 -372
-69 -529 -26 -23 6 -41 14 -41 19 0 4 -19 14 -42 20 -23 7 -61 28 -84 47 -22
19 -43 34 -46 34 -8 0 -116 111 -145 149 -15 20 -33 42 -40 49 -7 7 -13 17
-13 21 0 5 -11 20 -24 34 -13 14 -34 55 -46 91 l-22 66 -134 0 -134 0 0 -369
0 -369 35 -12 c19 -6 49 -26 66 -43 30 -29 199 -107 234 -107 8 0 15 -4 15 -9
0 -10 23 -20 67 -27 16 -2 39 -9 53 -14 62 -24 236 -52 357 -57 158 -6 327 9
478 44 61 13 126 27 145 30 19 2 47 13 61 23 14 10 44 23 65 29 21 6 48 18 58
26 11 8 28 15 38 15 10 0 27 9 38 20 11 11 43 32 71 47 28 16 72 47 98 71 25
24 56 50 69 59 12 8 22 20 22 25 0 6 23 30 50 55 28 25 50 51 50 58 0 8 6 18
13 22 20 12 53 73 72 133 9 30 23 60 29 65 7 6 25 46 41 90 28 78 29 84 29
290 0 207 0 211 -29 290 -15 44 -37 88 -47 99 -10 11 -18 26 -18 34 0 19 -56
116 -77 133 -9 8 -34 38 -55 66 -21 29 -44 53 -51 53 -7 0 -29 16 -50 35 -36
33 -96 73 -155 104 -15 8 -29 17 -32 21 -3 4 -54 27 -115 50 -60 23 -128 50
-151 60 -77 35 -224 90 -239 90 -8 0 -15 4 -15 9 0 7 -29 19 -60 25 -3 1 -11
5 -17 9 -7 5 -13 6 -13 4 0 -9 -131 41 -148 56 -9 8 -50 32 -90 52 -40 21 -80
48 -89 61 -8 13 -27 30 -41 37 -24 11 -58 67 -107 178 -21 48 -25 171 -6 177
6 2 11 11 11 19 0 34 64 132 128 194 49 48 81 71 122 85 30 10 60 24 65 31 18
22 138 45 230 46 125 0 202 -17 312 -69 112 -53 171 -105 221 -194 20 -36 42
-71 49 -78 7 -7 13 -21 13 -29 0 -14 10 -15 68 -10 37 4 91 7 120 7 l52 0 0
303 c0 286 -1 303 -19 319 -11 9 -22 14 -24 11 -3 -2 -57 16 -121 41 -63 25
-120 46 -125 46 -5 0 -11 5 -13 10 -2 6 -23 13 -48 16 -25 2 -56 9 -70 13 -56
20 -128 32 -253 42 -142 11 -346 9 -354 -4z"/>
<path d="M3178 7398 c-29 -38 -63 -112 -73 -157 -3 -17 -11 -33 -16 -36 -5 -4
-9 -14 -9 -24 0 -10 -9 -28 -19 -40 -20 -23 -91 -191 -91 -215 0 -8 -7 -16
-14 -19 -8 -3 -22 -28 -30 -55 -16 -57 -66 -162 -76 -162 -4 0 -12 -19 -19
-42 -18 -66 -71 -200 -82 -208 -3 -3 -14 -23 -23 -45 -47 -107 -72 -160 -77
-165 -3 -3 -12 -23 -19 -45 -7 -22 -26 -67 -42 -100 -15 -33 -28 -68 -28 -77
0 -10 -4 -18 -9 -18 -5 0 -14 -15 -21 -32 -6 -18 -20 -49 -30 -68 -10 -19 -24
-55 -31 -80 -7 -25 -17 -49 -23 -55 -6 -5 -31 -59 -55 -120 -25 -60 -50 -115
-56 -121 -13 -14 -36 -69 -61 -148 -10 -32 -24 -65 -32 -73 -8 -7 -34 -62 -58
-121 -25 -59 -49 -108 -54 -110 -6 -2 -10 -13 -10 -24 0 -22 -67 -180 -80
-188 -4 -3 -20 -36 -35 -75 -15 -38 -34 -89 -43 -112 -10 -24 -20 -43 -24 -43
-5 0 -8 -7 -8 -15 0 -8 -4 -23 -10 -33 -27 -48 -80 -177 -80 -193 0 -11 -4
-19 -9 -19 -9 0 -61 -118 -81 -182 -6 -21 -15 -38 -20 -38 -5 0 -19 -27 -31
-61 -12 -33 -28 -63 -36 -66 -7 -3 -13 -14 -13 -24 0 -18 12 -19 305 -19 l305
0 11 28 c6 15 14 50 19 78 9 57 40 156 50 164 4 3 12 21 18 40 37 127 78 247
89 261 7 8 13 25 13 37 0 21 78 242 89 252 3 3 13 25 22 50 l16 45 615 3 614
2 28 -80 c16 -44 32 -80 36 -80 5 0 14 -17 20 -37 24 -76 74 -208 84 -222 6
-7 11 -18 12 -25 4 -27 37 -132 44 -141 5 -6 14 -32 20 -58 7 -26 16 -47 20
-47 4 0 12 -17 18 -37 6 -21 23 -69 37 -108 15 -38 28 -81 29 -95 l1 -25 378
-3 c390 -2 397 -2 364 37 -8 9 -19 32 -26 51 -7 19 -17 44 -21 55 -5 11 -19
48 -31 83 -12 34 -26 62 -30 62 -5 0 -9 5 -9 11 0 6 -18 51 -40 100 -22 49
-40 96 -40 104 0 8 -4 15 -9 15 -5 0 -13 15 -16 33 -4 17 -11 37 -15 42 -5 6
-21 46 -36 90 -15 44 -33 85 -40 90 -7 6 -27 48 -44 95 -18 47 -47 117 -66
155 -18 39 -36 84 -40 100 -10 42 -43 115 -52 115 -5 0 -16 26 -26 58 -10 31
-26 77 -37 102 -10 25 -21 55 -24 68 -4 12 -10 22 -14 22 -5 0 -14 15 -21 33
-38 102 -81 199 -91 207 -4 3 -9 19 -12 35 -3 17 -21 65 -41 108 -20 42 -36
86 -36 97 0 11 -4 20 -8 20 -5 0 -16 17 -25 38 -44 103 -112 262 -128 297 -10
22 -21 54 -25 70 -4 17 -12 37 -19 45 -17 20 -51 104 -65 157 -6 23 -15 45
-20 48 -6 3 -10 15 -10 26 0 10 -4 19 -9 19 -9 0 -84 173 -96 223 -4 15 -11
27 -15 27 -5 0 -16 26 -25 57 -17 58 -61 154 -75 163 -5 3 -16 31 -25 62 -9
32 -21 60 -26 63 -5 4 -9 14 -10 23 0 9 -11 37 -24 62 -13 25 -29 55 -34 68
-10 21 -16 22 -130 22 l-119 0 -24 -32z m60 -1080 c13 -32 29 -58 33 -58 5 0
9 -8 9 -18 0 -10 18 -61 40 -112 22 -51 40 -100 40 -107 0 -7 4 -13 9 -13 5 0
20 -28 34 -62 55 -137 62 -153 74 -166 7 -7 13 -22 13 -32 0 -10 11 -40 24
-67 13 -26 27 -63 31 -80 3 -18 11 -35 16 -39 11 -7 64 -119 73 -156 3 -14 9
-33 12 -42 6 -14 -36 -16 -436 -16 -417 0 -442 1 -435 18 4 9 21 55 38 102 17
47 34 87 38 90 13 10 37 67 59 137 12 40 30 83 39 95 10 13 26 48 36 78 10 30
29 79 42 108 12 29 23 57 23 63 0 5 8 19 19 30 10 11 33 65 52 119 18 55 37
100 41 100 4 0 15 26 24 58 10 31 19 50 22 42 2 -8 16 -41 30 -72z"/>
<path d="M24710 7411 c-5 -11 -10 -29 -10 -40 0 -11 -7 -26 -15 -35 -22 -21
-60 -101 -84 -175 -12 -36 -26 -68 -33 -72 -10 -7 -17 -22 -48 -109 -16 -42
-43 -103 -50 -110 -9 -9 -50 -97 -50 -107 0 -18 -44 -117 -67 -152 -13 -19
-23 -42 -23 -51 0 -21 -47 -129 -65 -150 -7 -8 -29 -59 -49 -114 -20 -54 -43
-105 -51 -113 -8 -8 -15 -21 -15 -30 0 -16 -79 -184 -91 -193 -3 -3 -10 -20
-14 -38 -4 -19 -22 -67 -41 -109 -19 -41 -34 -81 -34 -89 0 -7 -4 -14 -9 -14
-9 0 -81 -160 -81 -180 0 -6 -11 -30 -24 -53 -13 -23 -34 -67 -46 -97 -44
-111 -53 -130 -62 -130 -4 0 -8 -6 -8 -13 0 -7 -9 -30 -20 -52 -11 -22 -20
-44 -20 -51 0 -19 -43 -118 -56 -129 -7 -5 -22 -38 -34 -73 -11 -34 -34 -88
-50 -120 -16 -31 -36 -75 -44 -97 -20 -56 -60 -149 -67 -155 -7 -6 -74 -156
-84 -187 -3 -13 -10 -23 -14 -23 -5 0 -11 -14 -15 -30 -3 -17 -24 -68 -46
-115 -22 -46 -40 -89 -40 -94 0 -6 -4 -11 -10 -11 -5 0 -10 -8 -10 -17 0 -10
-9 -31 -20 -48 -11 -16 -20 -38 -20 -47 0 -17 21 -18 300 -18 232 0 301 3 304
13 2 6 8 28 15 47 7 19 19 60 27 90 8 30 19 57 23 60 4 3 11 24 14 47 9 57 76
257 88 261 5 2 9 11 9 21 0 9 14 52 31 96 16 43 35 101 40 127 6 26 15 48 20
48 5 0 9 6 9 13 0 6 12 40 27 74 l28 63 613 -3 612 -2 29 -65 c16 -36 49 -117
72 -180 24 -63 46 -117 49 -120 3 -3 11 -23 19 -45 7 -22 21 -58 31 -80 10
-22 21 -58 26 -80 4 -22 10 -42 13 -45 9 -7 61 -155 81 -228 9 -34 22 -68 28
-74 7 -7 12 -18 12 -25 0 -10 73 -13 370 -13 204 0 370 4 370 9 0 18 -22 71
-30 71 -5 0 -11 15 -15 32 -3 18 -13 47 -20 63 -45 97 -65 145 -65 154 0 6 -4
11 -10 11 -5 0 -10 5 -10 11 0 15 -71 193 -79 199 -4 3 -18 34 -30 70 -13 36
-27 70 -32 75 -4 6 -15 33 -25 60 -9 28 -20 52 -24 55 -8 5 -19 33 -66 168
-13 40 -34 82 -44 92 -11 11 -20 25 -20 31 0 6 -6 25 -14 42 -8 18 -21 53 -30
78 -8 26 -24 62 -34 81 -11 19 -31 66 -45 104 -32 89 -48 124 -57 124 -4 0
-15 24 -24 53 -9 28 -21 61 -26 72 -4 11 -16 43 -26 70 -10 28 -23 55 -29 60
-6 6 -17 28 -23 50 -15 46 -74 178 -84 185 -3 3 -8 19 -11 35 -3 17 -17 55
-31 85 -14 30 -26 60 -26 67 0 6 -6 18 -13 25 -11 11 -27 46 -86 193 -5 11
-23 54 -41 95 -18 41 -44 106 -57 144 -12 38 -29 74 -37 80 -8 6 -26 46 -40
89 -28 82 -47 129 -56 137 -10 10 -50 101 -50 114 0 14 -34 90 -70 156 -11 19
-19 44 -20 55 0 12 -9 38 -20 60 -11 21 -25 53 -31 72 l-11 33 -133 0 c-123 0
-135 -2 -145 -19z m40 -1041 c0 -18 19 -70 30 -80 3 -3 20 -39 39 -80 18 -41
37 -83 42 -92 5 -10 9 -25 9 -33 0 -8 4 -15 10 -15 5 0 14 -19 21 -42 6 -24
21 -63 34 -88 12 -25 25 -57 29 -72 3 -16 11 -28 16 -28 6 0 10 -7 10 -15 0
-9 6 -26 14 -38 8 -12 27 -58 41 -102 15 -43 36 -90 46 -104 10 -13 19 -30 19
-38 0 -8 6 -27 14 -41 8 -15 23 -55 34 -89 l20 -63 -439 0 c-417 0 -439 1
-430 18 5 9 19 44 30 76 11 33 24 62 28 65 10 7 31 61 48 121 12 41 42 108 55
120 7 6 30 62 66 160 16 41 32 78 37 81 4 3 14 26 22 50 16 53 75 192 84 199
4 3 17 38 30 78 22 69 41 93 41 52z"/>
<path d="M27233 7382 c-160 -2 -213 -5 -213 -15 0 -8 -4 -7 -10 3 -8 12 -11
13 -19 1 -7 -11 -9 -11 -14 0 -4 10 -6 10 -6 2 -1 -10 -29 -13 -106 -13 l-105
0 0 -1690 0 -1690 309 0 c272 0 310 2 315 16 3 9 6 326 6 705 l0 689 88 0 89
0 43 -46 c24 -25 60 -69 81 -98 21 -28 49 -62 62 -76 13 -14 39 -45 58 -70 19
-25 42 -54 52 -65 10 -11 41 -49 68 -85 28 -36 56 -69 62 -75 7 -5 23 -26 35
-47 12 -20 28 -38 36 -41 7 -3 30 -30 50 -61 20 -31 40 -56 44 -56 4 0 26 -29
50 -64 24 -35 49 -67 57 -70 8 -3 23 -22 34 -43 10 -21 35 -51 55 -67 20 -15
36 -34 36 -42 0 -7 8 -21 18 -31 10 -10 50 -56 88 -103 38 -47 74 -88 80 -93
7 -4 26 -29 42 -56 17 -27 47 -65 67 -85 l36 -36 378 0 c290 0 380 3 383 12 4
12 -58 99 -117 163 -16 18 -49 55 -72 82 -23 26 -66 76 -97 110 -31 35 -56 66
-56 70 0 5 -15 24 -33 43 -17 19 -54 62 -82 95 -27 33 -54 65 -60 71 -66 71
-142 160 -150 175 -6 10 -27 35 -48 56 -86 88 -117 123 -141 161 -14 23 -37
49 -51 58 -14 9 -25 21 -25 26 0 13 -147 193 -212 260 -27 27 -48 55 -48 63 0
8 -9 20 -20 27 -24 15 -26 28 -5 28 15 0 106 40 115 51 3 3 34 19 70 35 36 15
75 38 87 51 12 13 25 23 29 23 24 0 191 150 203 182 2 6 12 19 22 29 10 10 29
40 43 66 13 26 33 58 44 71 24 28 75 179 98 292 19 94 15 231 -10 330 -25 100
-68 215 -85 230 -3 3 -22 35 -41 73 -20 38 -51 81 -72 98 -21 16 -38 38 -38
48 0 11 -12 24 -30 31 -17 7 -48 32 -69 56 -21 24 -47 47 -57 51 -10 5 -48 25
-85 45 -85 49 -260 100 -389 114 -36 4 -68 11 -71 17 -7 10 -391 14 -796 9z
m578 -403 c38 -7 69 -15 69 -20 0 -4 21 -11 48 -14 74 -10 133 -34 184 -76 26
-22 49 -39 52 -39 8 0 75 -73 76 -82 0 -4 11 -19 25 -34 14 -15 25 -33 25 -41
0 -7 9 -32 19 -56 22 -48 41 -124 41 -161 0 -14 5 -26 10 -26 6 0 10 -16 10
-35 0 -19 -4 -35 -10 -35 -5 0 -10 -15 -10 -33 0 -37 -26 -145 -39 -161 -5 -6
-14 -27 -20 -47 -13 -41 -35 -70 -101 -136 -76 -76 -83 -81 -160 -114 -41 -17
-83 -37 -95 -45 -43 -28 -167 -47 -305 -46 -74 0 -157 4 -185 9 l-50 8 0 590
0 590 45 6 c81 11 299 9 371 -2z"/>
<path d="M7390 7086 l0 -273 23 3 c12 2 56 8 97 13 41 6 138 13 215 17 77 3
142 9 145 14 3 4 77 11 165 14 88 4 213 9 277 12 l118 6 2 -1458 3 -1459 323
-3 322 -2 0 1460 0 1460 27 0 c108 0 509 -24 513 -30 3 -5 66 -12 140 -15 74
-4 179 -13 233 -19 53 -7 99 -10 102 -8 7 8 6 507 -1 526 -6 14 -134 16 -1355
16 l-1349 0 0 -274z"/>
<path d="M14200 5665 l0 -1695 250 0 250 0 2 1166 3 1166 50 -53 c28 -29 61
-64 75 -78 14 -14 40 -45 59 -68 18 -24 39 -43 46 -43 7 0 23 -15 34 -34 12
-19 38 -52 59 -73 83 -86 187 -205 192 -218 3 -8 24 -30 48 -50 23 -20 42 -42
42 -49 0 -7 19 -31 43 -54 23 -23 63 -65 89 -94 25 -29 67 -75 92 -103 24 -27
61 -70 81 -95 21 -25 46 -48 56 -52 11 -4 23 -18 29 -32 5 -13 25 -37 44 -53
20 -15 36 -33 36 -39 0 -6 24 -34 53 -62 64 -61 127 -137 127 -151 0 -6 6 -11
13 -12 6 0 32 -24 56 -52 40 -47 80 -92 255 -287 32 -36 73 -79 91 -97 18 -18
43 -48 56 -67 13 -19 34 -40 47 -45 12 -6 27 -22 32 -35 5 -13 27 -41 49 -62
23 -20 41 -40 41 -44 0 -4 21 -30 48 -57 55 -58 104 -118 121 -150 11 -22 16
-23 181 -23 l170 0 -2 1693 -3 1692 -250 0 -250 0 -3 -1113 -2 -1113 -53 57
c-28 31 -70 75 -92 98 -41 43 -73 78 -205 225 -41 47 -103 114 -137 150 -35
36 -63 68 -63 72 0 3 -22 27 -49 52 -28 26 -53 53 -58 61 -9 16 -143 165 -215
239 -27 27 -48 52 -48 56 0 4 -21 24 -46 45 -25 21 -49 49 -54 62 -6 14 -17
27 -27 31 -21 8 -62 54 -63 69 0 6 -11 17 -25 24 -14 8 -38 30 -52 49 -15 20
-43 53 -63 74 -19 20 -60 64 -90 98 -30 33 -76 82 -102 109 -27 26 -48 52 -48
56 0 5 -19 27 -43 49 -23 22 -98 100 -165 175 -68 74 -136 146 -150 160 -15
14 -47 50 -70 80 -24 30 -52 58 -63 62 -11 4 -22 16 -26 25 -18 52 -24 53
-220 53 l-183 0 0 -1695z"/>
<path d="M19507 7332 c-3 -15 -13 -92 -22 -172 -9 -80 -35 -280 -57 -445 -22
-165 -41 -327 -43 -360 -5 -86 -28 -249 -35 -255 -9 -7 -58 -387 -64 -495 -7
-124 -28 -289 -37 -295 -8 -6 -37 -211 -49 -350 -5 -52 -16 -144 -25 -205 -8
-60 -18 -134 -22 -162 -3 -29 -9 -53 -13 -53 -9 0 -20 -88 -26 -200 -4 -79
-28 -275 -41 -342 l-5 -28 270 0 270 0 5 33 c3 17 11 157 18 310 7 152 16 277
19 277 4 0 10 39 14 88 4 48 21 220 37 382 16 162 34 365 40 450 5 85 13 157
17 160 10 6 39 263 41 358 1 31 18 19 26 -19 4 -17 14 -39 24 -48 9 -9 24 -32
33 -51 10 -19 22 -42 27 -50 4 -8 39 -76 76 -150 37 -74 73 -142 81 -150 7 -8
30 -51 50 -95 21 -44 44 -86 51 -93 7 -7 16 -25 20 -40 9 -38 73 -162 83 -162
5 0 12 -10 15 -22 16 -50 79 -188 87 -188 4 0 8 -5 8 -10 0 -9 68 -149 132
-273 15 -29 32 -70 38 -92 6 -22 17 -44 24 -50 17 -14 76 -131 70 -138 -5 -5
23 -57 37 -67 9 -7 59 -126 59 -140 0 -10 37 -67 51 -80 3 -3 11 -21 19 -40 7
-19 16 -39 20 -43 10 -12 189 -12 199 -1 5 5 19 34 32 64 13 30 25 57 28 60 8
6 47 99 73 170 11 30 23 57 26 60 8 6 37 66 78 160 16 36 31 67 35 70 12 9 41
72 55 121 8 26 22 54 32 61 10 7 30 42 46 78 16 36 45 97 66 135 21 39 43 86
49 105 6 19 22 48 36 63 14 15 33 46 41 69 16 46 60 125 81 146 7 7 13 21 13
29 0 9 12 37 27 62 45 76 60 103 91 167 16 34 35 64 41 68 6 4 11 15 11 24 0
10 10 29 21 44 12 14 36 58 53 96 18 39 38 77 44 85 7 8 26 39 42 68 l30 54 0
-45 c0 -66 32 -374 40 -380 9 -7 50 -448 51 -545 0 -101 30 -458 39 -465 8 -6
51 -485 50 -567 0 -34 4 -73 10 -87 l10 -26 334 0 c207 0 337 4 341 10 8 12
-16 220 -25 220 -4 0 -15 71 -24 158 -10 86 -24 216 -32 289 -8 72 -17 169
-20 215 -2 45 -9 92 -14 103 -11 24 -28 159 -39 305 -11 141 -64 564 -72 570
-8 7 -18 83 -29 230 -25 320 -59 632 -71 640 -4 3 -10 46 -13 95 -6 96 -54
522 -61 543 -3 9 -41 12 -145 12 l-141 0 -17 -32 c-9 -17 -25 -40 -35 -50 -10
-10 -34 -53 -53 -95 -19 -42 -43 -83 -54 -90 -11 -8 -20 -19 -20 -24 0 -18
-69 -156 -85 -169 -8 -7 -15 -19 -15 -28 0 -8 -13 -37 -30 -64 -16 -26 -30
-52 -30 -57 0 -5 -6 -16 -13 -23 -20 -20 -97 -171 -97 -191 0 -9 -4 -17 -9
-17 -5 0 -13 -9 -16 -20 -3 -11 -12 -26 -18 -33 -19 -21 -57 -95 -57 -111 0
-8 -8 -23 -19 -33 -10 -10 -36 -56 -57 -103 -21 -47 -41 -87 -45 -90 -10 -7
-103 -180 -151 -280 -22 -47 -44 -87 -47 -90 -4 -3 -28 -48 -54 -100 -26 -52
-51 -102 -57 -110 -5 -8 -15 -26 -20 -40 -6 -14 -26 -52 -45 -85 -19 -33 -55
-103 -81 -155 -26 -52 -51 -97 -55 -100 -4 -3 -17 -24 -29 -48 -12 -23 -25
-44 -29 -47 -4 -2 -13 13 -20 33 -8 20 -22 45 -31 54 -10 9 -35 52 -56 95 -22
43 -41 80 -44 83 -15 15 -50 71 -68 110 -12 25 -33 63 -47 85 -14 22 -30 51
-35 65 -14 35 -42 83 -57 98 -7 7 -16 25 -19 40 -7 28 -57 127 -78 152 -7 8
-38 69 -70 135 -88 184 -109 224 -128 245 -10 11 -18 22 -18 25 0 2 -16 39
-35 81 -19 41 -35 82 -35 89 0 7 -6 20 -13 27 -20 20 -83 140 -91 170 -3 15
-12 33 -20 40 -13 14 -67 130 -80 175 -4 11 -13 23 -20 26 -7 3 -28 43 -46 89
-18 45 -41 91 -51 100 -9 9 -27 43 -39 75 -22 58 -54 117 -76 141 -7 6 -16 21
-19 32 -6 19 -15 20 -164 20 l-158 0 -6 -28z"/>
<path d="M29250 7084 c0 -258 1 -275 18 -270 32 9 207 26 337 32 71 3 132 9
135 14 7 12 541 33 552 22 4 -4 9 -660 10 -1457 l3 -1450 320 0 320 0 3 1459
2 1458 128 -6 c70 -3 189 -9 265 -12 75 -4 137 -10 137 -14 0 -4 57 -11 128
-14 127 -6 287 -22 330 -33 l22 -5 0 276 0 276 -1355 0 -1355 0 0 -276z"/>
<path d="M32397 7353 c-4 -3 -7 -766 -7 -1695 l0 -1688 323 2 322 3 3 1693 2
1692 -318 0 c-175 0 -322 -3 -325 -7z"/>
<path d="M33840 5665 l0 -1695 250 0 250 0 0 1168 c0 642 4 1162 8 1156 10
-16 116 -137 175 -198 26 -28 55 -62 63 -76 9 -14 32 -37 51 -50 20 -13 40
-37 45 -52 6 -15 15 -28 22 -28 15 0 66 -52 66 -67 0 -7 20 -28 45 -49 25 -20
45 -42 45 -49 0 -8 18 -29 40 -48 22 -19 40 -38 40 -44 0 -5 21 -30 48 -55 26
-24 87 -89 135 -144 49 -54 105 -117 125 -140 21 -22 64 -71 97 -109 33 -38
79 -87 103 -109 23 -22 42 -45 42 -51 0 -6 25 -34 55 -60 30 -27 55 -54 55
-61 0 -6 18 -25 40 -43 22 -17 40 -38 40 -46 0 -8 20 -31 45 -52 25 -20 45
-42 45 -48 0 -5 20 -30 44 -55 24 -25 68 -72 98 -106 29 -33 79 -89 110 -125
31 -35 71 -82 88 -104 17 -22 47 -53 65 -70 19 -16 39 -42 44 -57 6 -16 17
-28 25 -28 9 0 34 -24 56 -54 23 -30 57 -71 76 -91 19 -20 34 -41 34 -46 0 -5
72 -9 170 -9 l170 0 0 1695 0 1695 -255 0 -255 0 -2 -1115 -3 -1114 -80 91
c-44 50 -96 107 -115 128 -19 20 -59 63 -89 96 -29 32 -79 86 -110 120 -31 33
-99 107 -151 164 -52 57 -115 124 -140 149 -25 25 -58 63 -74 84 -15 21 -38
42 -50 47 -13 4 -28 22 -35 38 -7 17 -30 42 -52 56 -21 15 -39 31 -39 37 0 6
-28 40 -62 77 -35 36 -80 84 -102 106 -21 23 -54 60 -73 83 -19 23 -55 63 -80
90 -25 26 -64 69 -86 95 -23 26 -66 71 -94 99 -29 29 -53 56 -53 61 0 6 -25
35 -56 66 -100 102 -131 137 -153 170 -12 17 -29 32 -37 32 -8 0 -14 4 -14 9
0 4 -23 32 -50 62 -45 48 -81 87 -132 145 -9 10 -23 24 -30 30 -7 6 -29 29
-48 52 l-35 42 -177 0 -178 0 0 -1695z"/>
</g>
</svg>
