<svg width="119" height="118" viewBox="0 0 119 118" fill="none" xmlns="http://www.w3.org/2000/svg">
<ellipse cx="59.5" cy="59" rx="59.5" ry="59" fill="#00B6F9" fill-opacity="0.07"/>
<ellipse cx="59.5" cy="59.5" rx="39.5" ry="40.5" fill="#00B6F9"/>
<path d="M56.9651 71.8261C56.1825 71.8261 55.3999 71.213 55.3999 70.4467C55.3999 69.5272 56.026 68.9141 56.8086 68.7609C63.3825 68.3011 68.3912 62.937 68.3912 56.5C68.3912 49.7565 62.7564 44.2391 55.8695 44.2391C48.9825 44.2391 43.3477 49.7565 43.3477 56.5C43.3477 61.2511 46.1651 65.5424 50.5477 67.5348C51.3303 67.8413 51.6434 68.7609 51.3303 69.5272C51.0173 70.2935 50.0782 70.6 49.2955 70.2935C43.8173 67.8413 40.2173 62.4772 40.2173 56.5C40.2173 48.0707 47.2608 41.1739 55.8695 41.1739C64.4782 41.1739 71.5216 48.0707 71.5216 56.5C71.5216 64.4696 65.1042 71.213 56.9651 71.8261Z" fill="white"/>
<path d="M48.0433 77.9565C47.4172 77.9565 46.7911 77.4967 46.6346 76.8837C46.4781 76.2707 46.6346 75.5043 47.2607 75.1978C47.5737 74.8913 50.7041 72.4391 48.8259 69.8337C48.3563 69.2207 48.5128 68.1478 49.1389 67.688C49.6085 67.2283 50.5476 67.3815 51.1737 67.9946C52.7389 70.1402 52.7389 72.2859 51.9563 74.125C53.5215 73.3587 54.7737 71.8261 55.3998 69.8337C55.7128 69.0674 56.4954 68.6076 57.4346 68.7609C58.2172 69.0674 58.6868 69.8337 58.5302 70.6C57.5911 73.3587 55.0868 77.9565 48.0433 77.9565Z" fill="white"/>
<path d="M66.8259 73.8185C66.6694 73.8185 66.6694 73.8185 66.8259 73.8185C63.6955 73.6652 61.1911 72.4391 59.4694 70.4467C58.8433 69.8337 58.9998 68.7609 59.6259 68.3011C60.252 67.688 61.3476 67.8413 61.8172 68.4543C63.0694 69.8337 64.6346 70.6 66.8259 70.7533C67.765 70.7533 68.3911 71.5196 68.2346 72.4391C68.2346 73.2054 67.6085 73.8185 66.8259 73.8185Z" fill="white"/>
<path d="M71.365 73.3587C70.7389 73.3587 70.2693 73.0522 69.9563 72.4391C69.6432 71.6728 69.9563 70.7533 70.7389 70.4467C73.2432 69.3739 74.8084 66.9217 74.8084 64.163C74.8084 61.0978 72.7737 58.3391 69.6432 57.5728C68.8606 57.2663 68.391 56.5 68.5476 55.7337C68.7041 54.9674 69.6432 54.5076 70.4258 54.6609C74.8084 55.887 77.7824 59.8717 77.7824 64.3163C77.7824 68.1478 75.4345 71.6728 71.991 73.3587C71.678 73.3587 71.5215 73.3587 71.365 73.3587Z" fill="white"/>
<path d="M72.4606 77.9565C69.0171 77.9565 66.5128 76.1174 65.5736 73.0522C65.2606 72.2859 65.7302 71.3663 66.6693 71.213C67.4519 70.9065 68.391 71.3663 68.7041 72.2859C68.8606 72.7457 69.0171 73.2054 69.3302 73.6652C69.3302 72.8989 69.6432 71.9793 70.2693 71.0598C70.7388 70.4467 71.8345 70.2935 72.4606 70.7533C73.0867 71.213 73.2432 72.2859 72.7736 72.8989C71.8345 74.125 73.3997 75.1978 73.5562 75.3511C74.0258 75.8109 74.3388 76.4239 74.1823 77.037C73.7128 77.4967 73.0867 77.9565 72.4606 77.9565Z" fill="white"/>
<path d="M62.1304 54.9674H49.6087C48.6695 54.9674 48.0435 54.3543 48.0435 53.4348C48.0435 52.5152 48.6695 51.9022 49.6087 51.9022H62.1304C63.0695 51.9022 63.6956 52.5152 63.6956 53.4348C63.6956 54.3543 63.0695 54.9674 62.1304 54.9674Z" fill="white"/>
<path d="M59 61.0978H49.6087C48.6695 61.0978 48.0435 60.4848 48.0435 59.5652C48.0435 58.6457 48.6695 58.0326 49.6087 58.0326H59C59.9391 58.0326 60.5652 58.6457 60.5652 59.5652C60.5652 60.4848 59.9391 61.0978 59 61.0978Z" fill="white"/>
</svg>
