<svg width="49" height="41" viewBox="0 0 49 41" fill="none" xmlns="http://www.w3.org/2000/svg">
<path d="M0.531251 40.5V27.75C0.531251 20.45 2.23125 14.45 5.63125 9.74999C9.13125 4.94999 14.1813 1.85 20.7813 0.449996V8.7C17.5813 9.5 15.0813 11 13.2813 13.2C11.4813 15.3 10.3813 17.9 9.98125 21H17.7813V40.5H0.531251ZM28.75 40.5V27.75C28.75 20.45 30.45 14.45 33.85 9.74999C37.35 4.94999 42.4 1.85 49 0.449996V8.7C45.8 9.5 43.3 11 41.5 13.2C39.7 15.3 38.6 17.9 38.2 21H46V40.5H28.75Z" fill="#00B6F9"/>
</svg>
