<svg id="Calque_1" data-name="Calque 1" xmlns="http://www.w3.org/2000/svg" xmlns:xlink="http://www.w3.org/1999/xlink" viewBox="0 0 325.98 325.98"><defs><style>.cls-1{fill:none;}.cls-2{fill:url(#Dégradé_sans_nom_2);}.cls-3{fill:#fff;}.cls-4{fill:#5cbaea;}.cls-5{clip-path:url(#clip-path);}.cls-6{fill:#f4f3f4;}.cls-7{fill:#181823;}.cls-8{fill:#2b334a;}.cls-9{fill:#38afe5;}</style><linearGradient id="Dégradé_sans_nom_2" x1="17.62" y1="160.23" x2="145.52" y2="160.23" gradientTransform="matrix(1, 0, 0, -1, 0, 328)" gradientUnits="userSpaceOnUse"><stop offset="0" stop-color="#56c1dd"/><stop offset="1" stop-color="#38a4dd"/></linearGradient><clipPath id="clip-path"><path class="cls-1" d="M71.33,101.83c-6.19.6-53.71,3.55-53.71,37.89S37,205.49,52,220.52s32.81,19.18,52,4.63,41.45-54.08,41.54-76.06c.07-18.17-7-29.64-29.47-40.31C94.07,100,77.49,101.19,71.33,101.83Z"/></clipPath></defs><path class="cls-2" d="M71.33,101.83c-6.19.6-53.71,3.55-53.71,37.89S37,205.49,52,220.52s32.81,19.18,52,4.63,41.45-54.08,41.54-76.06c.07-18.17-7-29.64-29.47-40.31C94.07,100,77.49,101.19,71.33,101.83Z"/><path class="cls-3" d="M16.45,109.35C-6.36,123,40.65,187.2,56.94,177.51S39.25,95.79,16.45,109.35Z"/><path class="cls-4" d="M23.08,120.34c-14.54,8.67,21.7,58.13,32.11,52S37.66,111.7,23.08,120.34Z"/><g id="or_right" data-name="or right"><path class="cls-3" d="M91.53,91.82c26.52.7,16.86,79.72-2.1,79.25S65,91.16,91.53,91.82Z"/><path class="cls-4" d="M91.05,104.69c16.93.44,9.44,61.33-2.67,61S74.12,104.24,91.05,104.69Z"/></g><g class="cls-5"><g id="vis"><path class="cls-3" d="M76.41,159.7c24.74-3,46.05,13.24,48.66,34s-14.9,35.8-39.58,38.88-46.24-6.29-48.81-27.09S51.7,162.78,76.41,159.7Z"/><path class="cls-6" d="M71.58,160.55s36.59-9.05,51.2,24.24c-12.16-19.95-55.2-20.46-60.79-20.87A44.5,44.5,0,0,1,71.58,160.55Z"/><path class="cls-6" d="M44.9,183.61c.61-2.13,1.31-4.38,3-5.81l-2,1.75a26.62,26.62,0,0,1,4.73-8.14,38.45,38.45,0,0,0-8.26,9.15c-6.67,10.71-8,24.39-3.2,34.14,5.71,11.63,21.24,19.6,36.77,19.6h0c5.94,0,15.47-.13,20.4-4-15.47,3.3-39.29-11-41.68-13.94C54.65,216.36,38.57,200.31,44.9,183.61Z"/></g></g><g id="Mouth"><ellipse class="cls-7" cx="93.08" cy="215.46" rx="12.23" ry="9.91" transform="translate(-131.66 283.1) rotate(-83.38)"/></g><g id="J_right" data-name="J right"><path class="cls-4" d="M73.14,197c-3.3,1.62-5.3,4.42-4.35,6.29s4.32,2.06,7.65.48,5.31-4.42,4.35-6.29S76.44,195.3,73.14,197Z"/></g><g id="J_left" data-name="J left"><path class="cls-4" d="M108.11,190.22c3.68.28,6.57,2.16,6.41,4.25s-3.24,3.53-6.92,3.24-6.57-2.16-6.42-4.25S104.42,189.93,108.11,190.22Z"/></g><g id="Nez"><path class="cls-7" d="M96.74,194c.63,3.44-2.92,7.18-4.32,8.83-1.91-1-6.64-3.11-7.27-6.6S96,190.47,96.74,194Z"/><path class="cls-7" d="M87.18,196.41a.68.68,0,0,1-.89-1l.13-.12a6.47,6.47,0,0,1,4.25-2,.67.67,0,0,1,.13,1.33,5.32,5.32,0,0,0-3.53,1.69Z"/><path class="cls-7" d="M90.35,197.84a1.1,1.1,0,0,1,.86-1.27,1.08,1.08,0,0,1,1.27.86L96,215.78a1.09,1.09,0,1,1-2.13.42Z"/></g><g id="Eye_Left" data-name="Eye Left"><path class="cls-7" d="M77.68,180.5c1.43-.29,3.08,2.09,3.72,5.33s0,6.07-1.5,6.32-3.08-2.09-3.71-5.33S76.25,180.78,77.68,180.5Z"/></g><g id="Eye_right" data-name="Eye right"><path class="cls-7" d="M97.85,176.62c1.43-.28,3.08,2.1,3.72,5.34s0,6.07-1.5,6.32-3.08-2.1-3.71-5.34S96.42,176.91,97.85,176.62Z"/></g><path class="cls-8" d="M154.29,189.3a12.81,12.81,0,0,1,.92-4.9,11,11,0,0,1,2.54-3.74,11.78,11.78,0,0,1,3.84-2.38,14.25,14.25,0,0,1,4.86-.83,14,14,0,0,1,4.86.83,10.55,10.55,0,0,1,3.85,2.38,10.74,10.74,0,0,1,2.54,3.74,12.92,12.92,0,0,1,.92,4.9,12.72,12.72,0,0,1-.92,4.89,11.16,11.16,0,0,1-2.54,3.75,12,12,0,0,1-3.85,2.38,14.81,14.81,0,0,1-9.72,0,10.83,10.83,0,0,1-6.38-6.13A12,12,0,0,1,154.29,189.3Zm5.14,0a8,8,0,0,0,.51,2.92,6.1,6.1,0,0,0,1.43,2.28,6.87,6.87,0,0,0,2.22,1.53,8,8,0,0,0,5.78,0,6.35,6.35,0,0,0,2.23-1.53,7,7,0,0,0,1.43-2.28,8.47,8.47,0,0,0,.51-2.92,7.77,7.77,0,0,0-.51-2.89,6.51,6.51,0,0,0-1.43-2.32,6.92,6.92,0,0,0-2.23-1.53,7.52,7.52,0,0,0-2.89-.54,7.7,7.7,0,0,0-2.89.54,6.4,6.4,0,0,0-2.22,1.53,7.15,7.15,0,0,0-1.43,2.32A7.77,7.77,0,0,0,159.43,189.3Z"/><path class="cls-8" d="M186.14,176.5v10.7h.07a2.5,2.5,0,0,1,.54-.89,4.17,4.17,0,0,1,.92-.79,5.53,5.53,0,0,1,1.27-.58,5.36,5.36,0,0,1,1.59-.22,6.4,6.4,0,0,1,2.92.57,4.49,4.49,0,0,1,1.75,1.56,6.42,6.42,0,0,1,.85,2.32,16.28,16.28,0,0,1,.23,2.89v8.54h-4.77V193a11.25,11.25,0,0,0-.06-1.4,5.61,5.61,0,0,0-.29-1.33,2.26,2.26,0,0,0-.73-1,2.22,2.22,0,0,0-1.43-.39,3,3,0,0,0-1.49.35,2.45,2.45,0,0,0-.89.89,4,4,0,0,0-.41,1.27,10.08,10.08,0,0,0-.1,1.47v7.71h-4.76V176.53l4.79,0Z"/><path class="cls-8" d="M199.64,185.1h4.58v2.1h.06a3.8,3.8,0,0,1,.64-.89,4.52,4.52,0,0,1,1-.79,6.73,6.73,0,0,1,1.3-.58,5.36,5.36,0,0,1,1.59-.22,6.1,6.1,0,0,1,2.89.67,4.37,4.37,0,0,1,1.91,2.1,4.94,4.94,0,0,1,2-2.13,6.05,6.05,0,0,1,2.89-.64,6,6,0,0,1,2.63.54,4.46,4.46,0,0,1,1.69,1.43,6.22,6.22,0,0,1,.89,2.13,11.62,11.62,0,0,1,.28,2.64v9.14h-4.76v-9a3.54,3.54,0,0,0-.48-1.87,1.8,1.8,0,0,0-1.65-.8,3.15,3.15,0,0,0-1.4.29,2.45,2.45,0,0,0-.89.76,3.16,3.16,0,0,0-.47,1.11,5.72,5.72,0,0,0-.16,1.34v8.19h-4.77v-8.19c0-.29,0-.6,0-1a4.12,4.12,0,0,0-.22-1.14,2.26,2.26,0,0,0-.64-.92,1.79,1.79,0,0,0-1.27-.38,2.88,2.88,0,0,0-1.49.35,2.31,2.31,0,0,0-.89.89,3.87,3.87,0,0,0-.41,1.27,11.41,11.41,0,0,0-.1,1.46v7.71h-4.76V185.1Z"/><path class="cls-8" d="M236.26,203.08c-.31.83-.63,1.56-.92,2.19a4.74,4.74,0,0,1-1.14,1.62,4.34,4.34,0,0,1-1.75,1,9.37,9.37,0,0,1-2.76.35,11.16,11.16,0,0,1-3.56-.58l.64-3.9a5.6,5.6,0,0,0,2.22.47,3.68,3.68,0,0,0,1.3-.19,2.1,2.1,0,0,0,.86-.51,3.14,3.14,0,0,0,.57-.82c.16-.32.32-.7.48-1.11l.35-.89-6.8-15.6h5.15l4,10.23h.06l3.4-10.23h4.89Z"/><path class="cls-8" d="M245.12,176.5h4.77v24.07h-4.77Z"/><path class="cls-8" d="M268,197.9a7.43,7.43,0,0,1-2.89,2.26,8.54,8.54,0,0,1-3.62.79,9.9,9.9,0,0,1-3.37-.57,7.88,7.88,0,0,1-4.57-4.22,8.64,8.64,0,0,1,0-6.67,7.76,7.76,0,0,1,1.84-2.58,8.24,8.24,0,0,1,2.73-1.65,9.77,9.77,0,0,1,3.37-.57,7.78,7.78,0,0,1,3,.57,6.14,6.14,0,0,1,2.28,1.65,7.07,7.07,0,0,1,1.46,2.58,10,10,0,0,1,.51,3.33v1.49H257.64a3.75,3.75,0,0,0,1.24,2.2,3.52,3.52,0,0,0,2.35.82,3.61,3.61,0,0,0,2-.54,5.4,5.4,0,0,0,1.43-1.36Zm-4-6.83a2.78,2.78,0,0,0-.8-2.06,2.83,2.83,0,0,0-2.13-.86,3.7,3.7,0,0,0-1.39.26,3,3,0,0,0-1.05.66,2.87,2.87,0,0,0-.67.92,3.36,3.36,0,0,0-.28,1.12l6.32,0Z"/><path class="cls-8" d="M281.3,198.63h-.06a4.44,4.44,0,0,1-2.13,1.78,7.54,7.54,0,0,1-2.8.54,6.31,6.31,0,0,1-2.09-.32,4.87,4.87,0,0,1-1.78-.92,4.28,4.28,0,0,1-1.21-1.49,4.77,4.77,0,0,1-.44-2.06,4.47,4.47,0,0,1,.51-2.26,4.3,4.3,0,0,1,1.33-1.52,6.52,6.52,0,0,1,1.94-1,16,16,0,0,1,2.25-.5c.76-.1,1.56-.16,2.32-.19s1.49,0,2.16,0a2.54,2.54,0,0,0-.92-2,3.26,3.26,0,0,0-2.16-.76,4.53,4.53,0,0,0-2.16.51,5.8,5.8,0,0,0-1.75,1.36l-2.54-2.6a9,9,0,0,1,3.11-1.88,11.22,11.22,0,0,1,3.69-.63,9.74,9.74,0,0,1,3.46.54,4.93,4.93,0,0,1,2.16,1.56,6,6,0,0,1,1.14,2.5,15.33,15.33,0,0,1,.32,3.43v7.88h-4.38l0-1.94Zm-1.18-4.86a10.25,10.25,0,0,0-1.36.07,6.31,6.31,0,0,0-1.56.28,3.65,3.65,0,0,0-1.27.67,1.52,1.52,0,0,0-.54,1.24,1.41,1.41,0,0,0,.73,1.27,2.88,2.88,0,0,0,1.53.41,4.75,4.75,0,0,0,1.36-.19,4.26,4.26,0,0,0,1.18-.54,2.56,2.56,0,0,0,1.14-2.16v-1l-1.21,0Z"/><path class="cls-8" d="M304.93,200.57h-4.38v-2h-.07a4.84,4.84,0,0,1-.76.86,7.72,7.72,0,0,1-1.08.79,8.05,8.05,0,0,1-1.36.57,5.12,5.12,0,0,1-1.56.22,7.6,7.6,0,0,1-3.11-.6,7.13,7.13,0,0,1-2.42-1.65,7.74,7.74,0,0,1-1.55-2.54,9.87,9.87,0,0,1,0-6.32,8.45,8.45,0,0,1,1.4-2.64,7.14,7.14,0,0,1,2.23-1.84,6.24,6.24,0,0,1,2.95-.7,8,8,0,0,1,2.79.48,4.45,4.45,0,0,1,2.13,1.59h.07V176.5h4.76v24.07Zm-4.38-7.75a4,4,0,0,0-1-2.83,4.23,4.23,0,0,0-5.65,0,4,4,0,0,0-1,2.83,3.94,3.94,0,0,0,1,2.83,4.23,4.23,0,0,0,5.65,0A3.94,3.94,0,0,0,300.55,192.82Z"/><circle class="cls-9" cx="312.68" cy="197.65" r="2.99"/></svg>