<?xml version="1.0" encoding="utf-8"?>
<!-- Generator: Adobe Illustrator 22.1.0, SVG Export Plug-In . SVG Version: 6.00 Build 0)  -->
<svg version="1.1" id="Calque_1" xmlns="http://www.w3.org/2000/svg" xmlns:xlink="http://www.w3.org/1999/xlink" x="0px" y="0px"
	 viewBox="0 0 971.4 465" style="enable-background:new 0 0 971.4 465;" xml:space="preserve">
<style type="text/css">
	.st0{fill:url(#SVGID_1_);}
	.st1{fill:#FFFFFF;}
	.st2{fill:#58BAEA;}
	.st3{clip-path:url(#SVGID_3_);}
	.st4{fill:#F4F3F4;}
	.st5{fill:#181823;}
	.st6{fill:#2B334A;}
	.st7{fill:#35B0E6;}
</style>
<g>
	<linearGradient id="SVGID_1_" gradientUnits="userSpaceOnUse" x1="28.8855" y1="246.2373" x2="431.5938" y2="246.2373">
		<stop  offset="0" style="stop-color:#0ED9F0"/>
		<stop  offset="1" style="stop-color:#05A9F4"/>
	</linearGradient>
	<path class="st0" d="M198,38.6C178.5,40.5,28.9,49.8,28.9,157.9S89.8,365,137.1,412.3s103.3,60.4,163.7,14.6
		s130.5-170.3,130.8-239.5c0.2-57.2-21.9-93.3-92.8-126.9C269.6,32.7,217.4,36.6,198,38.6z"/>
	<g>
		<path id="XMLID_69_" class="st1" d="M25.2,62.3c-71.8,42.8,76.2,245.1,127.5,214.6C204,246.4,97,19.6,25.2,62.3z"/>
		<path id="XMLID_68_" class="st2" d="M46.1,96.9c-45.8,27.3,68.3,183,101.1,163.6C179.9,241,92,69.7,46.1,96.9z"/>
	</g>
	<g id="or_right_4_">
		<g>
			<path id="XMLID_67_" class="st1" d="M261.6,7.1c83.5,2.2,53.1,251-6.6,249.5C195.4,255,178.1,5,261.6,7.1z"/>
			<path id="XMLID_66_" class="st2" d="M260.1,47.6c53.3,1.4,29.7,193.1-8.4,192.1C213.7,238.7,206.8,46.2,260.1,47.6z"/>
		</g>
	</g>
	<g>
		<defs>
			<path id="SVGID_2_" d="M198,38.6C178.5,40.5,28.9,49.8,28.9,157.9S89.8,365,137.1,412.3s103.3,60.4,163.7,14.6
				s130.5-170.3,130.8-239.5c0.2-57.2-21.9-93.3-92.8-126.9C269.6,32.7,217.4,36.6,198,38.6z"/>
		</defs>
		<clipPath id="SVGID_3_">
			<use xlink:href="#SVGID_2_"  style="overflow:visible;"/>
		</clipPath>
		<g id="vis_4_" class="st3">
			<g>
				<path id="XMLID_65_" class="st1" d="M214,220.8c77.9-9.6,145,41.7,153.2,107.2c8.1,65.5-46.9,112.7-124.6,122.4
					c-77.9,9.6-145.6-19.8-153.7-85.3C80.7,299.7,136.2,230.5,214,220.8z"/>
				<path id="XMLID_64_" class="st4" d="M198.8,223.5c0,0,115.2-28.5,161.2,76.3c-38.3-62.8-173.8-64.4-191.4-65.7
					C180.1,227.7,198.8,223.5,198.8,223.5z"/>
				<path id="XMLID_63_" class="st4" d="M142.6,396.7c0.8,1.3,2.8,1.4,3.2-0.3c1.4-5-0.8-12.8-5-16.1c-0.9-0.7-2.5-0.4-2.4,1
					c0.3,2.4,1.3,4.8,1.9,7.2c0.5,1.9,0.8,3.9,1.3,5.7c-4.2-5.5-8.2-11-12.2-16.6c-1.2,0-2.4,0-3.6,0c-1,0-1.7-0.7-1.8-1.7
					c0-0.9,0.7-1.7,1.7-1.8c0.5,0,1,0,1.4,0c-1.2-1.7-2.3-3.3-3.5-5c-0.2,2.1-1.5,4.2-3.4,5.3c-5.7-13.8-8.4-28.8-7.9-43.8
					c-2.1,2.6-4.4,5.2-6.5,7.8c2.2-14.2,5.2-28.4,9-42.3c1.9-6.7,4.1-13.8,9.4-18.3l-6.3,5.5c3.3-9.6,8.5-17.7,14.9-25.6
					c-9.9,8.2-18.7,17.2-26,28.8c-21,33.7-25.2,76.8-10.1,107.5c18,36.6,66.9,61.7,115.8,61.7l0,0c18.7,0,48.7-0.4,64.2-12.6
					c-48.7,10.4-50,0.9-56.8-4.1c0,1.3,0.7,2.4,1.6,3.3c-20.1-5.5-39.1-14.4-55.9-26.6c1.1,3.6,2.2,7.1,3.3,10.7
					c-8.2-8.8-15.9-17.8-23.4-27.2"/>
			</g>
		</g>
	</g>
	<g id="Mouth_4_">
		
			<ellipse id="XMLID_62_" transform="matrix(0.1152 -0.9933 0.9933 0.1152 -157.8562 615.4279)" class="st5" cx="266.5" cy="396.3" rx="38.5" ry="31.2"/>
	</g>
	<g id="J_right_4_">
		<path id="XMLID_61_" class="st2" d="M203.7,338.1c-10.4,5.1-16.7,13.9-13.7,19.8c2.8,5.8,13.6,6.5,24.1,1.5
			c10.4-5.1,16.7-13.9,13.7-19.8C225,333.6,214.1,332.9,203.7,338.1z"/>
	</g>
	<g id="J_left_4_">
		<path id="XMLID_60_" class="st2" d="M313.8,316.9c11.6,0.9,20.7,6.8,20.2,13.4c-0.5,6.5-10.2,11.1-21.8,10.2
			c-11.6-0.9-20.7-6.8-20.2-13.4C292.5,320.6,302.2,316,313.8,316.9z"/>
	</g>
	<g id="Nez_4_">
		<g>
			<g id="XMLID_57_">
				<path id="XMLID_59_" class="st5" d="M278,328.7c2,10.8-9.2,22.6-13.6,27.8c-6-3.1-20.9-9.8-22.9-20.8
					C239.3,324.7,275.8,317.7,278,328.7z"/>
				<path id="XMLID_58_" class="st5" d="M247.9,336.4c-0.9,0.8-2.2,0.7-3-0.2c-0.8-0.9-0.7-2.2,0.2-3l0.4-0.4
					c3.2-2.8,6-5.4,13.4-6.2c1.2-0.1,2.2,0.7,2.3,1.9c0.1,1.2-0.7,2.2-1.9,2.3c-6,0.7-8.4,2.8-11.1,5.3L247.9,336.4z"/>
			</g>
			<path id="XMLID_56_" class="st5" d="M257.9,340.9c-0.4-1.9,0.9-3.6,2.7-4c1.9-0.4,3.6,0.9,4,2.7l11.1,57.8c0.4,1.9-0.9,3.6-2.7,4
				c-1.9,0.4-3.6-0.9-4-2.7L257.9,340.9z"/>
		</g>
	</g>
	<g id="Eye_Left_4_">
		<path id="XMLID_55_" class="st5" d="M218,286.3c4.5-0.9,9.7,6.6,11.7,16.8c1.9,10.1-0.1,19.1-4.7,19.9c-4.5,0.9-9.7-6.6-11.7-16.8
			C211.4,296.1,213.5,287.2,218,286.3z"/>
	</g>
	<g id="Eye_right_4_">
		<path id="XMLID_54_" class="st5" d="M281.5,274.1c4.5-0.9,9.7,6.6,11.7,16.8c1.9,10.1-0.1,19.1-4.7,19.9
			c-4.5,0.9-9.7-6.6-11.7-16.8C274.8,284,277,275,281.5,274.1z"/>
	</g>
</g>
<g>
	<path class="st6" d="M459.2,314c0-5.7,1-10.8,2.9-15.4s4.6-8.5,8-11.8c3.4-3.2,7.5-5.7,12.1-7.5c4.7-1.7,9.8-2.6,15.3-2.6
		s10.7,0.9,15.3,2.6c4.7,1.7,8.7,4.2,12.1,7.5c3.4,3.2,6.1,7.2,8,11.8s2.9,9.8,2.9,15.4c0,5.7-1,10.8-2.9,15.4s-4.6,8.5-8,11.8
		c-3.4,3.2-7.5,5.7-12.1,7.5c-4.7,1.7-9.8,2.6-15.3,2.6s-10.7-0.9-15.3-2.6c-4.7-1.7-8.7-4.2-12.1-7.5c-3.4-3.2-6.1-7.2-8-11.8
		C460.1,324.8,459.2,319.7,459.2,314z M475.4,314c0,3.3,0.5,6.4,1.6,9.2c1,2.8,2.5,5.2,4.5,7.2c1.9,2,4.3,3.6,7,4.8
		c2.7,1.1,5.7,1.7,9.1,1.7c3.3,0,6.4-0.6,9.1-1.7c2.7-1.1,5-2.7,7-4.8c1.9-2,3.4-4.4,4.5-7.2c1-2.8,1.6-5.8,1.6-9.2
		c0-3.3-0.5-6.3-1.6-9.1c-1-2.8-2.5-5.2-4.5-7.3c-1.9-2-4.3-3.6-7-4.8c-2.7-1.1-5.7-1.7-9.1-1.7c-3.3,0-6.4,0.6-9.1,1.7
		c-2.7,1.1-5,2.7-7,4.8c-1.9,2-3.4,4.5-4.5,7.3S475.4,310.7,475.4,314z"/>
	<path class="st6" d="M559.5,273.7v33.7h0.2c0.3-0.9,0.9-1.9,1.7-2.8s1.8-1.8,2.9-2.5c1.1-0.7,2.5-1.3,4-1.8s3.2-0.7,5-0.7
		c3.8,0,6.9,0.6,9.2,1.8c2.3,1.2,4.2,2.8,5.5,4.9s2.2,4.5,2.7,7.3s0.7,5.8,0.7,9.1v26.9h-15v-23.9c0-1.4,0-2.9-0.2-4.4
		s-0.4-2.9-0.9-4.2c-0.5-1.3-1.3-2.3-2.3-3.1s-2.5-1.2-4.5-1.2c-1.9,0-3.5,0.4-4.7,1.1s-2.1,1.6-2.8,2.8c-0.6,1.2-1.1,2.5-1.3,4
		s-0.3,3-0.3,4.6v24.3h-15v-75.8L559.5,273.7L559.5,273.7z"/>
	<path class="st6" d="M602,300.8h14.4v6.6h0.2c0.5-0.9,1.1-1.9,2-2.8s1.9-1.8,3.1-2.5c1.2-0.7,2.6-1.3,4.1-1.8s3.2-0.7,5-0.7
		c3.4,0,6.4,0.7,9.1,2.1c2.6,1.4,4.6,3.6,6,6.6c1.7-3.1,3.8-5.4,6.3-6.7c2.5-1.3,5.5-2,9.1-2c3.3,0,6,0.6,8.3,1.7
		c2.2,1.1,4,2.6,5.3,4.5s2.2,4.1,2.8,6.7s0.9,5.3,0.9,8.3v28.8h-15v-28.4c0-2.3-0.5-4.2-1.5-5.9c-1-1.6-2.7-2.5-5.2-2.5
		c-1.7,0-3.2,0.3-4.4,0.9s-2.1,1.4-2.8,2.4s-1.2,2.2-1.5,3.5s-0.5,2.7-0.5,4.2v25.8h-15v-25.8c0-0.9,0-1.9-0.1-3.2
		c-0.1-1.3-0.3-2.5-0.7-3.6s-1.1-2.1-2-2.9s-2.2-1.2-4-1.2c-1.9,0-3.5,0.4-4.7,1.1s-2.1,1.6-2.8,2.8c-0.6,1.2-1.1,2.5-1.3,4
		s-0.3,3-0.3,4.6v24.3h-15v-48.9H602z"/>
	<path class="st6" d="M717.3,357.4c-1,2.6-2,4.9-2.9,6.9s-2.1,3.7-3.6,5.1c-1.4,1.4-3.3,2.4-5.5,3.1s-5.1,1.1-8.7,1.1
		c-3.9,0-7.6-0.6-11.2-1.8l2-12.3c2.3,1,4.6,1.5,7,1.5c1.7,0,3-0.2,4.1-0.6s2-0.9,2.7-1.6s1.3-1.6,1.8-2.6s1-2.2,1.5-3.5l1.1-2.8
		l-21.4-49.1h16.2l12.5,32.2h0.2l10.7-32.2h15.4L717.3,357.4z"/>
	<path class="st6" d="M745.2,273.7h15v75.8h-15V273.7z"/>
	<path class="st6" d="M817.1,341.1c-2.4,3.1-5.4,5.4-9.1,7.1c-3.7,1.7-7.5,2.5-11.4,2.5c-3.7,0-7.3-0.6-10.6-1.8
		c-3.3-1.2-6.2-2.9-8.6-5.2c-2.4-2.2-4.4-4.9-5.8-8.1c-1.4-3.1-2.1-6.6-2.1-10.5s0.7-7.4,2.1-10.5c1.4-3.1,3.3-5.8,5.8-8.1
		c2.4-2.2,5.3-4,8.6-5.2s6.8-1.8,10.6-1.8c3.5,0,6.6,0.6,9.5,1.8c2.8,1.2,5.2,2.9,7.2,5.2c2,2.2,3.5,4.9,4.6,8.1
		c1.1,3.1,1.6,6.7,1.6,10.5v4.7h-34.9c0.6,2.9,1.9,5.2,3.9,6.9s4.5,2.6,7.4,2.6c2.5,0,4.6-0.6,6.3-1.7s3.2-2.5,4.5-4.3L817.1,341.1z
		 M804.4,319.6c0.1-2.5-0.8-4.7-2.5-6.5s-4-2.7-6.7-2.7c-1.7,0-3.1,0.3-4.4,0.8c-1.3,0.5-2.4,1.2-3.3,2.1c-0.9,0.8-1.6,1.8-2.1,2.9
		s-0.8,2.3-0.9,3.5L804.4,319.6L804.4,319.6z"/>
	<path class="st6" d="M859.1,343.4h-0.2c-1.7,2.6-3.9,4.5-6.7,5.6s-5.7,1.7-8.8,1.7c-2.3,0-4.5-0.3-6.6-1c-2.1-0.6-4-1.6-5.6-2.9
		s-2.9-2.8-3.8-4.7c-0.9-1.9-1.4-4-1.4-6.5c0-2.8,0.5-5.2,1.6-7.1c1-1.9,2.4-3.5,4.2-4.8s3.8-2.3,6.1-3s4.6-1.2,7.1-1.6
		c2.4-0.3,4.9-0.5,7.3-0.6c2.4-0.1,4.7-0.1,6.8-0.1c0-2.7-1-4.8-2.9-6.4s-4.2-2.4-6.8-2.4c-2.5,0-4.7,0.5-6.8,1.6
		c-2,1-3.9,2.5-5.5,4.3l-8-8.2c2.8-2.6,6.1-4.6,9.8-5.9s7.6-2,11.6-2c4.4,0,8,0.6,10.9,1.7c2.8,1.1,5.1,2.7,6.8,4.9
		c1.7,2.1,2.9,4.8,3.6,7.9c0.7,3.1,1,6.7,1,10.8v24.8H859L859.1,343.4L859.1,343.4L859.1,343.4z M855.4,328.1c-1.1,0-2.6,0-4.3,0.2
		c-1.7,0.1-3.3,0.4-4.9,0.9c-1.6,0.5-2.9,1.2-4,2.1s-1.7,2.2-1.7,3.9c0,1.8,0.8,3.1,2.3,4s3.1,1.3,4.8,1.3c1.5,0,2.9-0.2,4.3-0.6
		c1.4-0.4,2.6-1,3.7-1.7c1.1-0.7,1.9-1.7,2.6-2.8c0.6-1.1,1-2.5,1-4v-3.2L855.4,328.1L855.4,328.1z"/>
	<path class="st6" d="M933.5,349.5h-13.8v-6.4h-0.2c-0.6,0.9-1.4,1.8-2.4,2.7c-1,0.9-2.1,1.7-3.4,2.5c-1.3,0.7-2.7,1.3-4.3,1.8
		s-3.2,0.7-4.9,0.7c-3.6,0-6.9-0.6-9.8-1.9c-2.9-1.2-5.5-3-7.6-5.2s-3.7-4.9-4.9-8c-1.1-3.1-1.7-6.4-1.7-10.1c0-3.4,0.5-6.7,1.6-9.8
		c1-3.1,2.5-5.9,4.4-8.3s4.2-4.3,7-5.8c2.7-1.4,5.8-2.2,9.3-2.2c3.1,0,6.1,0.5,8.8,1.5s4.9,2.6,6.7,5h0.2v-32.3h15L933.5,349.5
		L933.5,349.5z M919.7,325.1c0-3.7-1.1-6.6-3.2-8.9c-2.1-2.3-5.1-3.4-8.9-3.4c-3.8,0-6.8,1.1-8.9,3.4c-2.1,2.3-3.2,5.2-3.2,8.9
		c0,3.7,1.1,6.7,3.2,8.9c2.1,2.3,5.1,3.4,8.9,3.4c3.8,0,6.8-1.1,8.9-3.4C918.6,331.8,919.7,328.8,919.7,325.1z"/>
</g>
<circle class="st7" cx="957.9" cy="340.3" r="9.4"/>
</svg>
