<svg id="Calque_1" data-name="Calque 1" xmlns="http://www.w3.org/2000/svg" xmlns:xlink="http://www.w3.org/1999/xlink" viewBox="0 0 325.98 325.98"><defs><style>.cls-1{fill:none;}.cls-2{fill:url(#Dégradé_sans_nom_2);}.cls-3{fill:#fff;}.cls-4{fill:#5cbaea;}.cls-5{clip-path:url(#clip-path);}.cls-6{fill:#f4f3f4;}.cls-7{fill:#181823;}</style><linearGradient id="Dégradé_sans_nom_2" x1="42" y1="155.41" x2="298.64" y2="155.41" gradientTransform="matrix(1, 0, 0, -1, 0, 328)" gradientUnits="userSpaceOnUse"><stop offset="0" stop-color="#56c1dd"/><stop offset="1" stop-color="#38a4dd"/></linearGradient><clipPath id="clip-path"><path class="cls-1" d="M149.77,40.26C137.34,41.47,42,47.4,42,116.29s38.81,132,69,162.13,65.84,38.49,104.33,9.3,83.17-108.53,83.36-152.63c.12-36.45-14-59.46-59.14-80.87C195.4,36.5,162.13,39,149.77,40.26Z"/></clipPath></defs><path class="cls-2" d="M149.77,40.26C137.34,41.47,42,47.4,42,116.29s38.81,132,69,162.13,65.84,38.49,104.33,9.3,83.17-108.53,83.36-152.63c.12-36.45-14-59.46-59.14-80.87C195.4,36.5,162.13,39,149.77,40.26Z"/><path class="cls-3" d="M39.64,55.37C-6.12,82.64,88.2,211.57,120.9,192.13S85.4,28.15,39.64,55.37Z"/><path class="cls-4" d="M53,77.42C23.77,94.81,96.49,194,117.39,181.68S82.21,60.08,53,77.42Z"/><g id="or_right" data-name="or right"><path class="cls-3" d="M190.3,20.19c53.21,1.4,33.84,160-4.21,159S137.08,18.85,190.3,20.19Z"/><path class="cls-4" d="M189.34,46c34,.89,18.93,123.06-5.35,122.42S155.37,45.11,189.34,46Z"/></g><g class="cls-5"><g id="vis"><path class="cls-3" d="M160,156.38c49.65-6.12,92.41,26.57,97.64,68.31s-29.89,71.83-79.41,78S85.4,290.08,80.24,248.34,110.38,162.56,160,156.38Z"/><path class="cls-6" d="M150.28,158.1S223.69,139.93,253,206.72c-24.41-40-110.76-41-122-41.87C138.36,160.77,150.28,158.1,150.28,158.1Z"/><path class="cls-6" d="M96.74,204.36c1.21-4.27,2.62-8.79,6-11.66l-4,3.51a53.32,53.32,0,0,1,9.49-16.32,76.81,76.81,0,0,0-16.57,18.36c-13.38,21.47-16,48.94-6.43,68.51,11.47,23.32,42.63,39.32,73.8,39.32h0c11.91,0,31-.26,40.91-8-31,6.62-78.83-22-83.61-28C116.31,270.07,84,237.87,96.74,204.36Z"/></g></g><g id="Mouth"><ellipse class="cls-7" cx="193.41" cy="268.26" rx="24.53" ry="19.88" transform="translate(-95.35 429.48) rotate(-83.38)"/></g><g id="J_right" data-name="J right"><path class="cls-4" d="M153.4,231.13c-6.63,3.25-10.64,8.86-8.73,12.62s8.66,4.14,15.36.95,10.64-8.85,8.73-12.61S160,227.82,153.4,231.13Z"/></g><g id="J_left" data-name="J left"><path class="cls-4" d="M223.56,217.62c7.4.57,13.2,4.33,12.88,8.54s-6.5,7.07-13.9,6.5-13.19-4.33-12.87-8.54S216.17,217.05,223.56,217.62Z"/></g><g id="Nez"><path class="cls-7" d="M200.75,225.14c1.27,6.88-5.86,14.4-8.67,17.72-3.82-2-13.32-6.25-14.59-13.26S199.35,218.13,200.75,225.14Z"/><path class="cls-7" d="M181.57,230.05a1.36,1.36,0,1,1-1.79-2l.26-.26a13.11,13.11,0,0,1,8.54-3.95,1.35,1.35,0,0,1,.25,2.68,10.68,10.68,0,0,0-7.07,3.38Z"/><path class="cls-7" d="M187.94,232.91a2.17,2.17,0,0,1,4.27-.82l7.07,36.83a2.17,2.17,0,1,1-4.27.83Z"/></g><g id="Eye_Left" data-name="Eye Left"><path class="cls-7" d="M162.51,198.12c2.87-.57,6.18,4.21,7.46,10.71s-.07,12.17-3,12.68-6.18-4.21-7.45-10.71S159.64,198.69,162.51,198.12Z"/></g><g id="Eye_right" data-name="Eye right"><path class="cls-7" d="M203,190.34c2.87-.57,6.18,4.21,7.46,10.71s-.07,12.17-3,12.68-6.18-4.2-7.46-10.7S200.11,190.92,203,190.34Z"/></g></svg>