<svg width="119" height="118" viewBox="0 0 119 118" fill="none" xmlns="http://www.w3.org/2000/svg">
<ellipse cx="59.5" cy="59" rx="59.5" ry="59" fill="#FF456D" fill-opacity="0.07"/>
<ellipse cx="59.5" cy="58.5" rx="39.5" ry="40.5" fill="#FF456D"/>
<path d="M44 67.75V65.3214L46.643 62.6234L48.806 60.4153L48.8105 60.4107L48.791 60.3908C47.6184 58.4628 46.9979 56.2382 47 53.9688C47 50.7198 48.2643 47.604 50.5147 45.3067C52.7652 43.0094 55.8174 41.7188 59 41.7188C62.1826 41.7188 65.2348 43.0094 67.4853 45.3067C69.7357 47.604 71 50.7198 71 53.9688C71 56.3269 70.3415 58.5242 69.209 60.3908L69.1895 60.4107L69.194 60.4153L71.357 62.6234L74 65.3214V67.75H44ZM59 73.875C58.2044 73.875 57.4413 73.5523 56.8787 72.978C56.3161 72.4037 56 71.6247 56 70.8125H62C62 71.6247 61.6839 72.4037 61.1213 72.978C60.5587 73.5523 59.7956 73.875 59 73.875ZM76.5605 63.6034L72.854 59.8212C73.6118 57.9671 74.0013 55.9778 74 53.9688C74 46.0415 68.069 39.5046 60.5 38.7343V35.5938H57.5V38.7343C49.931 39.5046 44 46.0415 44 53.9688C44 56.0421 44.4095 58.0174 45.146 59.8212L41.4395 63.6034C41.3001 63.7458 41.1895 63.9148 41.1141 64.1008C41.0387 64.2868 40.9999 64.4862 41 64.6875V70.8125H53C53 74.1904 55.691 76.9375 59 76.9375C62.309 76.9375 65 74.1904 65 70.8125H77V64.6875C77 64.2649 76.832 63.8821 76.5605 63.6034Z" fill="white"/>
</svg>
