<?xml version="1.0" standalone="no"?>
<!DOCTYPE svg PUBLIC "-//W3C//DTD SVG 20010904//EN"
 "http://www.w3.org/TR/2001/REC-SVG-20010904/DTD/svg10.dtd">
<svg version="1.0" xmlns="http://www.w3.org/2000/svg"
 width="500.000000pt" height="150.000000pt" viewBox="0 0 500.000000 150.000000"
 preserveAspectRatio="xMidYMid meet">

<g transform="translate(0.000000,150.000000) scale(0.100000,-0.100000)"
fill="#000000" stroke="none">
<path d="M2903 1415 c-69 -21 -134 -64 -215 -143 -106 -103 -215 -274 -257
-404 -22 -68 -28 -49 -15 50 21 155 42 262 69 347 31 102 32 117 3 113 -17 -2
-27 -14 -36 -42 -24 -75 -63 -311 -82 -510 -11 -111 -28 -243 -36 -294 -12
-69 -14 -96 -5 -105 6 -6 13 -8 16 -6 3 3 14 61 24 130 66 421 323 802 563
835 97 13 127 -70 69 -191 -42 -88 -101 -163 -259 -329 -204 -212 -207 -226
-29 -141 146 71 270 103 327 86 45 -13 63 -39 63 -91 0 -134 -164 -359 -350
-483 -83 -55 -180 -95 -249 -103 -47 -6 -54 -4 -85 24 -31 27 -34 35 -33 81 3
78 61 189 143 270 74 74 145 115 233 132 74 15 78 34 6 25 -86 -12 -174 -60
-254 -140 -149 -150 -197 -338 -100 -397 55 -34 137 -21 272 41 158 73 279
174 368 309 63 94 87 155 93 232 5 62 4 68 -24 99 -27 30 -37 34 -91 38 -72 5
-193 -28 -304 -84 -38 -19 -68 -31 -68 -28 0 4 64 73 143 153 198 203 267 313
267 425 0 44 -5 58 -25 78 -14 14 -39 28 -56 32 -38 7 -34 8 -86 -9z"/>
<path d="M832 1331 c-132 -46 -233 -113 -348 -226 -154 -154 -202 -271 -134
-328 35 -30 91 -43 270 -62 150 -17 232 -33 228 -46 -2 -4 -28 -27 -58 -49
-122 -91 -301 -283 -345 -370 -68 -134 -20 -208 117 -179 118 26 260 111 358
216 135 144 150 284 40 361 -22 15 -39 30 -40 34 0 7 212 113 248 123 20 6 22
3 22 -32 0 -40 28 -83 54 -83 22 0 66 40 66 61 0 23 7 25 77 33 l52 5 -6 -33
c-11 -70 53 -73 167 -7 l69 39 13 -41 c12 -38 16 -42 49 -45 27 -2 48 5 87 32
l52 35 0 -28 c0 -63 45 -60 90 5 25 38 30 37 45 -9 12 -38 47 -47 77 -20 12
10 38 54 58 98 20 44 42 91 48 105 10 21 11 18 5 -25 -3 -27 -6 -108 -7 -180
-1 -140 10 -189 46 -201 29 -9 32 1 11 32 -15 24 -18 49 -17 179 0 82 9 213
19 290 23 177 23 179 4 183 -13 2 -19 -11 -28 -60 -35 -175 -134 -418 -172
-418 -10 0 -29 58 -29 91 0 36 -38 64 -72 54 -13 -4 -45 -29 -71 -55 -58 -58
-113 -87 -136 -72 -13 7 -16 26 -14 81 2 63 0 72 -15 69 -9 -2 -22 -19 -28
-37 -17 -52 -157 -134 -200 -117 -30 11 8 86 56 111 24 12 33 13 49 3 23 -14
36 -6 28 17 -11 27 -79 19 -121 -14 -33 -27 -108 -51 -155 -51 -10 0 -25 10
-34 23 -12 17 -18 19 -28 10 -10 -10 -10 -17 1 -38 24 -45 -15 -96 -48 -63
-31 31 -7 94 41 111 20 8 14 27 -9 27 -8 0 -25 -7 -37 -15 -13 -8 -49 -24 -82
-35 -32 -11 -105 -45 -163 -75 -57 -30 -107 -53 -112 -50 -19 11 -163 36 -292
49 -88 9 -151 21 -175 33 -37 17 -38 20 -38 70 1 45 7 61 49 123 124 182 383
343 572 357 68 5 74 4 98 -20 14 -14 26 -34 26 -45 0 -39 -32 -122 -65 -172
-36 -54 -42 -70 -25 -70 15 0 67 85 90 147 28 76 26 116 -9 155 -28 31 -33 33
-108 36 -66 2 -91 -2 -161 -27z m1137 -531 c-25 -44 -59 -80 -59 -62 0 38 42
102 67 102 11 0 9 -10 -8 -40z m-1015 -183 c52 -49 64 -84 47 -145 -32 -119
-183 -261 -361 -339 -84 -37 -168 -45 -190 -18 -20 24 -6 89 32 152 65 109
361 392 410 393 10 0 38 -19 62 -43z"/>
<path d="M4496 1218 c-3 -7 -16 -56 -30 -108 -13 -52 -39 -132 -56 -176 -31
-81 -31 -82 -65 -81 -26 1 -43 -7 -67 -29 -47 -44 -99 -81 -131 -93 -23 -9
-31 -7 -47 9 -16 16 -20 34 -20 85 0 71 -11 86 -48 66 -11 -6 -51 -56 -88
-111 -37 -55 -74 -100 -81 -100 -18 0 -16 50 6 133 10 37 14 70 9 73 -13 8
-38 -16 -38 -36 0 -21 -78 -94 -124 -116 -62 -30 -91 -8 -112 81 -9 37 -26 55
-54 55 -54 0 -90 -50 -90 -125 0 -41 2 -45 25 -45 19 0 34 12 57 46 l33 45 10
-30 c15 -45 40 -65 78 -64 37 1 106 32 126 57 23 27 29 18 27 -38 -2 -114 44
-99 144 47 93 135 90 134 90 51 0 -118 47 -145 143 -84 26 17 49 30 51 30 2 0
6 -13 10 -30 16 -82 95 3 170 182 40 95 41 93 27 -99 -5 -62 -6 -124 -3 -138
7 -37 35 -49 71 -31 35 18 161 153 161 172 0 24 -14 15 -45 -27 -16 -22 -52
-61 -78 -86 -41 -38 -50 -43 -64 -32 -13 12 -14 30 -9 129 4 63 14 174 22 245
7 72 15 141 17 154 2 26 -20 42 -27 19z m-926 -386 c0 -5 -14 -29 -31 -53 -40
-56 -38 -53 -45 -47 -6 7 21 75 37 95 13 14 39 18 39 5z m780 -15 c0 -13 -47
-87 -55 -87 -14 0 -2 63 15 80 23 23 40 26 40 7z"/>
<path d="M1716 983 c-11 -11 -6 -23 9 -23 8 0 15 4 15 9 0 13 -16 22 -24 14z"/>
<path d="M3385 885 c-41 -22 -49 -31 -85 -95 l-31 -55 7 71 c4 51 3 74 -6 79
-23 14 -29 -10 -36 -144 -6 -112 -5 -133 7 -129 8 3 25 36 40 74 48 130 91
184 147 184 22 0 32 4 30 13 -7 18 -39 19 -73 2z"/>
<path d="M3606 511 c-15 -23 -43 -121 -35 -121 4 0 11 5 14 10 3 6 19 10 36
10 16 0 29 -4 29 -10 0 -5 4 -10 9 -10 5 0 2 24 -6 53 -17 57 -36 86 -47 68z
m17 -79 c-21 -5 -25 2 -17 34 l7 29 13 -30 c10 -25 10 -31 -3 -33z"/>
<path d="M3790 507 c-21 -11 -25 -20 -25 -57 0 -37 4 -46 23 -56 39 -19 62 -7
62 32 0 27 -4 34 -20 34 -11 0 -20 -4 -20 -10 0 -5 5 -10 10 -10 6 0 10 -9 10
-20 0 -22 -20 -26 -38 -8 -17 17 -15 63 3 78 8 7 24 10 35 7 24 -6 27 8 4 17
-19 7 -14 8 -44 -7z"/>
<path d="M4147 513 c-11 -10 -8 -123 3 -123 6 0 10 19 11 43 l0 42 22 -42 c31
-62 47 -56 47 17 0 33 -4 60 -10 60 -5 0 -10 -19 -10 -42 l-1 -43 -25 48 c-26
50 -27 51 -37 40z"/>
<path d="M4363 510 c-24 -10 -37 -43 -31 -81 4 -28 41 -49 71 -41 21 6 21 7
-3 10 -36 5 -50 20 -50 52 0 33 22 54 50 47 24 -6 27 8 4 17 -9 3 -16 6 -17 5
-1 0 -12 -4 -24 -9z"/>
<path d="M3960 450 l0 -60 38 1 c31 2 32 3 9 6 -22 4 -28 9 -25 26 2 13 10 22
20 22 9 0 20 4 24 8 4 4 -5 7 -19 7 -39 0 -38 37 1 43 22 3 20 4 -10 6 l-38 1
0 -60z"/>
<path d="M4535 468 c14 -24 25 -52 25 -63 1 -12 6 -5 14 17 8 21 21 49 30 63
14 22 15 25 1 25 -8 0 -15 -4 -15 -8 0 -5 -6 -17 -14 -27 -14 -19 -15 -19 -27
8 -7 15 -18 27 -25 27 -9 0 -5 -14 11 -42z"/>
</g>
</svg>
